/* XPM */
static char *_0f33e9dd555471ddc1cdc8ac74a9dc979gY1UPe7trz1EdJ[] = {
/* columns rows colors chars-per-pixel */
"60 60 2 1 ",
"  c black",
". c #FF6600",
/* pixels */
"                                                            ",
"                                                            ",
"                                                            ",
"                                                            ",
"                                                            ",
"                                                            ",
"                                                            ",
"       ....................     ......          ......      ",
"       ....................     ......          ......      ",
"       ....................     ......          ......      ",
"       ....................     ......          ......      ",
"       ....................     .........    .........      ",
"       .....                        .....    .....          ",
"       .....                        .....    .....          ",
"       .....                        .....    .....          ",
"       ....................         ..............          ",
"       ....................             ......              ",
"       ....................             ......              ",
"       ....................             ......              ",
"       ....................         ..............          ",
"       .....                        .....    .....          ",
"       .....                        .....    .....          ",
"       .....                        .....    .....          ",
"       ....................     .........    .........      ",
"       ....................     ......          ......      ",
"       ....................     ......          ......      ",
"       ....................     ......          ......      ",
"       ....................     ......          ......      ",
"                                                            ",
"                                                            ",
"                                                            ",
"                                                            ",
"                                                            ",
"       ....................     ......................      ",
"       ....................     ......................      ",
"       ....................     ......................      ",
"       ....................     ......................      ",
"       ....................     ......................      ",
"              ......                    ......              ",
"              ......                    ......              ",
"              ......                    ......              ",
"              ......                    ......              ",
"              ......                    ......              ",
"              ......                    ......              ",
"              ......                    ......              ",
"              ......                    ......              ",
"              ......                    ......              ",
"              ......                    ......              ",
"              ......                    ......              ",
"       ....................             ......              ",
"       ....................             ......              ",
"       ....................             ......              ",
"       ....................             ......              ",
"       ....................             ......              ",
"                                                            ",
"                                                            ",
"                                                            ",
"                                                            ",
"                                                            ",
"                                                            "
};
