/* XPM */
static char *_ac018cbf51a4af6e507e5a2760761cds2xJ4qoRHxa3l2qc[] = {
/* columns rows colors chars-per-pixel */
"60 60 196 2 ",
"   c #5D1C9C",
".  c #5F129C",
"X  c #601A97",
"o  c #631A9C",
"O  c #5A2389",
"+  c #5C2398",
"@  c #622395",
"#  c #63259E",
"$  c #642899",
"%  c #662E93",
"&  c #6E379F",
"*  c #5D13A8",
"=  c #5F14B5",
"-  c #680CAB",
";  c #6516A5",
":  c #6C16A2",
">  c #641BA4",
",  c #6B1EA5",
"<  c #6413AC",
"1  c #6816AC",
"2  c #661AAC",
"3  c #6A1DA9",
"4  c #7215AB",
"5  c #6D0EB5",
"6  c #660DBB",
"7  c #6C0DBC",
"8  c #710CBD",
"9  c #6412B3",
"0  c #6B14B4",
"q  c #651BB3",
"w  c #6B1AB3",
"e  c #6613BA",
"r  c #6C14BB",
"t  c #6A1BBB",
"y  c #7212B9",
"u  c #6426A3",
"i  c #6720AA",
"p  c #6D21A8",
"a  c #6834A2",
"s  c #6C25B1",
"d  c #7F2BB7",
"f  c #7620BF",
"g  c #7635B7",
"h  c #6C0CC5",
"j  c #6C05CB",
"k  c #6D0CCB",
"l  c #6B06C4",
"z  c #7007C6",
"x  c #720DC4",
"c  c #7407CC",
"v  c #720BCB",
"b  c #7909CA",
"n  c #6D12C3",
"m  c #6D12C9",
"M  c #6D1AC0",
"N  c #7312C4",
"B  c #7118C4",
"V  c #7312CA",
"C  c #7C12CA",
"Z  c #6F0AD2",
"A  c #7505D5",
"S  c #7806D4",
"D  c #740AD3",
"F  c #7A0DD4",
"G  c #7405D9",
"H  c #770BDB",
"J  c #7C06D9",
"K  c #7510D8",
"L  c #7511D3",
"P  c #813BBF",
"I  c #885FA3",
"U  c #845CA5",
"Y  c #9258AF",
"T  c #8B47B8",
"R  c #8244BF",
"E  c #8754B6",
"W  c #8659B3",
"Q  c #8C56BB",
"!  c #8B58BF",
"~  c #8269AA",
"^  c #8638C9",
"/  c #8E3DCA",
"(  c #9C3BE0",
")  c #973CF1",
"_  c #8E45CA",
"`  c #874CC6",
"'  c #924CCD",
"]  c #8F52CB",
"[  c #9757C9",
"{  c #8E47D3",
"}  c #9446D4",
"|  c #9B47D2",
" . c #934CD4",
".. c #984DD4",
"X. c #9647DE",
"o. c #9248D9",
"O. c #9852DA",
"+. c #A048DC",
"@. c #9C62CC",
"#. c #AD73DA",
"$. c #B37CDA",
"%. c #9846E1",
"&. c #9F5DE3",
"*. c #A65FE1",
"=. c #B357FF",
"-. c #9D6CE2",
";. c #B378ED",
":. c #BD7EF4",
">. c #BD7FFA",
",. c #C27DF3",
"<. c #C37DFC",
"1. c #D37FFF",
"2. c #AE8BCF",
"3. c #B18DCD",
"4. c #A893CB",
"5. c #AF86D5",
"6. c #AF85DB",
"7. c #B484DD",
"8. c #B78DD9",
"9. c #B189D2",
"0. c #B791DC",
"q. c #B283E2",
"w. c #BB85E5",
"e. c #BC8BE5",
"r. c #B782EF",
"t. c #BC84EC",
"y. c #B78CE5",
"u. c #BE92E1",
"i. c #B781F3",
"p. c #BB81F4",
"a. c #BD83FA",
"s. c #C18CE3",
"d. c #C583E8",
"f. c #C693EF",
"g. c #C482F4",
"h. c #C088F3",
"j. c #C482FC",
"k. c #D89AFD",
"l. c #DEABFF",
"z. c #DAB7F7",
"x. c #DEB5FF",
"c. c #DEBCFF",
"v. c #D9BCF6",
"b. c #E3AEFF",
"n. c #E3B4FF",
"m. c #EAB3FF",
"M. c #E3BBFF",
"N. c #ECBBFF",
"B. c #F2BFFF",
"V. c #D6C2E7",
"C. c #D1C7E9",
"Z. c #D9C6EC",
"A. c #D5C4F3",
"S. c #DDC7F5",
"D. c #DDC1FE",
"F. c #E1C3F7",
"G. c #E3C2FF",
"H. c #EAC3FF",
"J. c #EBC9FF",
"K. c #F4C1FF",
"L. c #FFC5FF",
"P. c #F3CEFF",
"I. c #F5D0FF",
"U. c #FFD1FF",
"Y. c #FCF8EF",
"T. c #FFE5FF",
"R. c #FFEDFF",
"E. c #F6F6F5",
"W. c #F7FDF7",
"Q. c #FDFEF6",
"!. c #F6F7FC",
"~. c #FFF4FF",
"^. c #F6FEFE",
"/. c #FAF9FE",
"(. c #FFF9FF",
"). c #FFF8FF",
"_. c #FFFBFF",
"`. c #FDFAFE",
"'. c #FBFFFF",
"]. c #FAFEFE",
"[. c #FFFCFD",
"{. c #FCFFFD",
"}. c #FFFFFD",
"|. c #FEFFFD",
" X c #FCFDFF",
".X c #FFFDFF",
"XX c #FFFCFF",
"oX c #FCFFFF",
"OX c #FDFEFF",
"+X c #FFFEFF",
"@X c #FEFFFF",
"#X c white",
"$X c #FEFEFF",
"%X c gray99",
"&X c #FEFEFE",
"*X c #FBF7F4",
/* pixels */
"#X#X#X#X#X#X#X#X#X#X#X#X#X#X#X#X#X#X#X#X#X#X#X#X#X#X#X#X#X#X#X#X#X#X#X#X#X#X#X#X#X#X#X#X#X#X#X#X#X#X#X#X#X#X#X#X#X#X#X#X",
"#X#X#X#X#X#X#X#X#X#X#X#X#X#X#X#X#X#X#X#X#X#X#X#X#X#X#X#X#X#X#X#X#X#X#X#X#X#X#X#X#X#X#X#X#X#X#X#X#X#X#X#X#X#X#X#X#X#X#X#X",
"#X#X#X#X#X#X#X#X#X#X#X#X#X#X#X#X#X#X#X#X#X#X#X#X#X#X#X#X#X#X#X#X#X#X#X#X#X#X#X#X#X#X#X#X#X#X#X#X#X#X#X#X#X#X#X#X#X#X#X#X",
"#X#X#X#X#X#X#X#X#X#X#X#X#X#X#X#X#X#X#X#X#X#X#X#X#X#X#X#X#X#X#X#X#X#X#X#X#X#X#X#X#X#X#X#X#X#X#X#X#X#X#X#X#X#X#X#X#X#X#X#X",
"#X#X#X#X#X#X#X#X#X#X#X#X#X#X#X#X#X#X#X#X#X#X#X#X#X#X#X#X#X#X#X#X#X#X#X#X#X#X#X#X#X#X#X#X#X#X#X#X#X#X#X#X#X#X#X#X#X#X#X#X",
"#X#X#X#X#X#X#X#X#X#X#X#X#X#X#X#X#X#X#X#X#X#X#X#X#X#X#X#X#X#X#X#X#X#X#X#X#X#X#X#X#X#X#X#X#X#X#X#X#X#X#X#X#X#X#X#X#X#X#X#X",
"#X#X#X#X#X#X#X#X#X#X#X#X#X#X#X#X#X#X#X#X#X#X#X#X#X#X#X#X#X#X#X#X#X#X#X#X#X#X#X#X#X#X#X#X#X#X#X#X#X#X#X#X#X#X#X#X#X#X#X#X",
"#X#X#X#X#X#X#X#X#X#X#X#X#X#X#X#X#X#X#X#X#X#X#X#X#X#X#X#X#X#X#X#X#X#X#X#X#X#X#X#X#X#X#X#X#X#X#X#X#X#X#X#X#X#X#X#X#X#X#X#X",
"#X#X#X#X#X#X#X#X#X#X#X#X#X#X#X#X#X#X#X#X#X#X#X#X#X#X#X#X#X#X#X#X#X#X#X#X#X#X#X#X#X#X#X#X#X#X#X#X#X#X#X#X#X#X#X#X#X#X#X#X",
"#X#X#X#X#X#X#X#X#X#X#X#X#X#X#X#X#X#X#X#X#X#X#X#X#X#X#X#X#X#X#X#X#X#X#X#X#X#X#X#X#X#X#X#X#X#X#X#X#X#X#X#X#X#X#X#X#X#X#X#X",
"#X#X#X#X#X#X#X#X#X#X#X#X#X#X#X#X#X#X#X#X#X#X#X#X#X#X#X#X#X#X#X#X#X#X#X#X#X#X#X#X#X#X#X#X#X#X#X#X#X#X#X#X#X#X#X#X#X#X#X#X",
"#X#X#X#X#X#X#X#X#X#X#X#X#X#X#X#X#X#X#X#X#X#X#X#X#X#X#X#X#X#X#X#X#X#X#X#X#X#X#X#X#X#X#X#X#X#X#X#X#X#X#X#X#X#X#X#X#X#X#X#X",
"#X#X#X#X#X#X#X#X#X#X#X#X#X#X#X#X#X#X#X#X#X#X#X#X#X#X#X#X#X#X#X#X#X#X#X#X#X#X#X#X#X#X#X#X#X#X#X#X#X#X#X#X#X#X#X#X#X#X#X#X",
"#X#X#X#X#X#X#X#X#X#X#X#X#X#X#X#X#X#X#X#X#X#X#X#X#X#X#X#X#X#X#X#X#X#X#X#X#X#X#X#X#X#X#X#X#X#X#X#X#X#X#X#X#X#X#X#X#X#X#X#X",
"#X#X#X#X#X#X#X#X#X#X#X#X#X#X#X#X#X#X#X#X#X#X#X#X#X#X#X#X#X#X#X#X#X#X#X#X#X#X#X#X#X#X#X#X#X#X#X#X#X#X#X#X#X#X#X#X#X#X#X#X",
"#X#X#X#X#X#X#X#X#X#X#X#X#X#X#X`.%X#X#X#X#X#X#X#X#X#X#X#X#X#X#X#X%X%X#X#X#X#X#X#X#X%X#X#X#X#X#X#X#X%X#X#X#X#X#X#X#X#X#X#X",
"{.{.^.#X#X`.[.[.%X#X#X`.`.`.#X[.%X%X#X#X`.#X{.{.^.#X`.`.~.#XQ.%X%XQ.%XW.#X#X`.`.#XQ.[.[.^.^.#X#XQ.%X%X#X#X#X#X#X#X`.#X`.",
"#X#X{.#X%XQ.[.#X%X%X#X#X#X`.[.%X%X#X#X/.#X#X{.^.{.#X#X#X`.`.Q.W.%X#X%X#X^.{.#X`.Q.`.[.E.{.^.#X`.%X%X#X#X#X/.#X#X/.`.#X#X",
"#X[.Q.%X%X#X`.#X%XQ.#XW.#X#X#X^.{.!.#X#X%XY.%XW.{.{.W.Q.%X%X#X{.{.#X{.^.#X`.[.`.{.{.#X#X#X#XQ.%XQ.Q.%XW.%X%X#X%X#X%XQ.W.",
"*X[.%X[.`.~.~.~.~.[.`.~.~.~.`.~./.`.~.~.R.`.#X%XW.{.#X#X~.~.~.R.~.~./.#X~.~.R.~.`.#X`.~.R.~.~.~.~.`.~.~.~.~.~.`.`.~.#X%X",
"#X`.E.~.5.i.a.a.i.i.a.a.:.t.7.H.~.4.7.t.g.7.`.#X{.{.#X~.~.8.t.t.e.3.`.~.9.d.g.$.S.~.~.0.i.a.t.t.j.a.>.,.,.g.<.p.5.F.~.`.",
"#X[.~.~.i.q 0 e r 0 r t w w   b.~.G.a > e 2 I.~.`.{.`.~.U.  ; > % J.~.~.t.3 - , z.~.R.E q e < < 5 n 7 7 0 r e < # M.~.~.",
"%XQ.%X~.a.5 b b x 8 7 7 7 r > N.~.~.s.o r r [ R.`.#X#X~.&.n k 1 u.~.#X`.i.< C ; M.~.R.Q 9 h n n m k D v n 6 m q   n.~.~.",
"%X%X[.~.j.n b b ( X.| | | ' Q x.~.`.R.[ N x 3 b.~.`.~.x.e v N O.R.~.{.~.i.r b 1 M.~.~.U ] } o.%.) D j x %.{ O.` ] x.~.#X",
"Q.%X%X~.:.n D m :.T.~.R.~.~.`.`.#X#X`.M.w c h / ~.~.R.` 7 8 o K.~.`.#X~.:.r c 0 D.`.#X`.~.R.~.T.%.k v r n.R.~.~.~.~.#X#X",
"^.W.%X~.,.r Z n y.~.`.^.#X%X/.{.W.#X#X~.<.7 F 5 s.T.j.q x 0 s.~.`.#X#X~.,.r c 0 c.`.#X#X#X#X#X~.| x k 0 n.`.#X%X`.#X#X#X",
"^.^.{.~.,.y Z n 7.~./.{.`.~.`.#X#XE.#X~.T.P h n p L.B h 7 _ T.~.#X{.W.`.>.n G r M.`.`.#X#X#XQ.~.| b S 0 n.`.%XQ.`.#X#X{.",
"^.^.#X~.,.y D x <.M.G.c.M.G.Z.~./.#X`.`.~.M.t m e =.c v 2 K.~.#X{.{.#X~.:.n G N M.`.#X`.#X#XQ.~.| b F r M.#X%XQ.#X`.#X{.",
"#X#X#X~.:.y S J v 7 n n e i W ~.#X#X#X/.#X~.-.= n D v y $.~.`.#X#X#X{.~.a.h D r M.`.#X#X#X#X%X~. .k S r x.`.#X#X`.#X#X{.",
"#X#X#X~.:.e D J v V h V h 9 E R.~./.#X#X#X~.T.9 m A F B T.`.#X%X#X#X#X~.:.r c r M.#X#X#X%X#X#X~. .h D r c.#X#X#X`.`.#X^.",
"Q.%X`.~.i.r c b w > o o ; @ I ~.`.#X%X#X`.R.*.N c J A n N.R.#X%X#X`.#X~.p.r D e M.`.#X#X%X%X{.~. .m D e M.`.%XQ.#X#X^.^.",
"%X#X#X~.p.r h r p.T.T.T.T.T.~.`.~.Q.%X`.~.M.w b x C D V g R.#X%X`.#X#X~.,.0 v 0 M.`.#X#X#X%X#X~. .Z H r x.#X%X%X#X#X^.^.",
"#X#X`.~.p.e v t q.~.~.`.~.`.`.`.#X%XW.`.R.g m D d 1.n j n a.~.#X^.{.^.~.g.0 z w M.~.{.^.#X#X#X~...v H h M.#X#X%X#X`.#X^.",
"^.#X`.~.>.r Z e y./.`.#X%X*X#X#X#X#X#XR.a.t j r k.T.^ n D 9 H.~.#X{.{.R.,.y z 0 M.`.#X^.{.{.`.~._ V G n M.#XW.%X#X#X#X^.",
"#X#X`.T.<.N D r w.T.`.%XQ.%X#X#X`.~.~.N.1 k 7 ..R.R.l.> x 5 T R.~.%X#X~.<.x Z r M.`.#X{.%X%X#X~.' x A e M.`.%XQ.%X%X{.^.",
"Q.%X`.~.<.6 D x <.T.T.~.R.~.~.~.`.~.R.[ 7 V ; N.~.`.~.@.y 8 4 d.~./.~.~.j.6 D 9 M.`.#X{.%X%X#X~.' x H e x.`.#XQ.%X#X#XW.",
"%X%XQ.~.d.5 b F h B r w ; o $ M.~.R.a.r h r #.~.`.{.~.P.2 V x : B.R.`.~.;.B j t M.`.#X%XQ.%X%X~.' N D r M.~.#X%X#X#X{.^.",
"%X%XQ.~.e.; 8 c Z K j l y w o m.R.J.s 6 B p U.~.{.^.`.~.;.q 7 4 Y ~.~.~.h.< h q D.`.#X%X#X%X#X`.` t n * G.~.`.#X`.#X{.^.",
"#X{.#X~.7.u > w r = t w ; o @ n.~.~ + >   f.~.#XW.^.#X~.R.a > > O 2.~.~.q.u q + D.`.#X#X#X#X%X`.W > 2 # v.#X#X`.#X#X#X{.",
"#X{.{.`.c.x.n.m.b.m.m.m.m.M.x.D.Z.v.M.n.M.R.`.Q.W.{./.`.`.D.n.n.M.c.C.`.c.n.m.x.Z.#X`.#X`.#X#X#XM.b.m.n.V.#X#X#X`.#X#X{.",
"`.{.{.{.`.`.`.~.~.~.~.`.~.~.#X`.`.`.`.~.~.`.`.%XQ.%X#X#X`.`.`.`.~.~.#X#X`.`.~.~.`.#X`.#X#X#X#X#X~.~.R.~.#XQ.Q.%X#X#X#X{.",
"#X#X#X{.#X#X%XQ.%X%XQ.%X#X#X#X#X`.#X#X#X#X#X#X`.%X%X#X#X#X#X#X%X%X#X{.{.#X%XQ.Q.Q.%X#X`.#X{.%X#X#X#X~.`.%XQ.Q.Q.#X#X{.#X",
"`.#X#X#X#X#X%XQ.Q.Q.%X%X#X#X#X#X`.%X{.{.{.#X`.`.#X#X#X#X#X%XQ.%X%X#X{.^.#X%XQ.Q.%X%X#X#X#X%X%X%XQ.%X#X#XQ.Q.Q.%X#X#X#X#X",
"`.#X#X#X#X#X#XW.%X%X%X%X`.`.#X`.#X#XW.%X{.#X#X#X#X#X#X#X#X%X%X%X%X#X^.^.{.%X%XQ.%X#X#X#XW.%X%XQ.%X%X#X{.%X%X#X#X#X{.%X#X",
"%XQ.%X%X%X#X#X{.{.#X#X#X#X#X#X#X#X%X%X%X{.{.#X#X%X%X#X#X%X#X#X#X#X#X{.W.W.#X#X#X#X#X%X%X#X%X%X%X#X{.{.#X#X#X#X#X#X#X#X%X",
"%X%X%X%X%X#X#X{.#X#X#X#X#X#X#X#X#X#X%X%X{.{.#X{.%XQ.%X%X%X#X#X#X#X#X^.^.%X%X#X#X#X#X#X%X#X%X%X#X#X#X{.{.`.#X`.#X#X#X%X#X",
"#X#X#X%X%X%X#X#X#X%X%X%X{.{.#X#X#X#X#X#X#X%X{.{.#X#X%X%X%X%X#X#X`.`.{.^.#X%X[.#X#X#X#X#X#X#X#X#X#X#X%XQ.#X`.#X#X%X%X%X#X",
"{.#X#X#X%X%X#X#X%XQ.%X#XW.{.#X#X#X{.#X#X%X%X#X{.{.#X#XQ.#X%X#X#X#X#X{.^.#XQ.[.%X#X#X#X#X#X#X#X#X#X%XQ.Q.#X#X#X%X%X%X#X#X",
"#X{.#X#X#X#X#X#X#X%X%X#X%X#X#X#X#X#X#X#X%X#X#X#X#X#X#X%X#X#X#X#X#X#X#X#X#X#X#X#X#X#X#X#X#X#X#X#X#X%X%X#X#X#X#X#X%X%X#X#X",
"#X#X#X#X#X#X#X#X#X#X#X#X#X#X#X#X#X#X#X#X#X#X#X#X#X#X#X#X#X#X#X#X#X#X#X#X#X#X#X#X#X#X#X#X#X#X#X#X#X#X#X#X#X#X#X#X#X#X#X#X",
"#X#X#X#X#X#X#X#X#X#X#X#X#X#X#X#X#X#X#X#X#X#X#X#X#X#X#X#X#X#X#X#X#X#X#X#X#X#X#X#X#X#X#X#X#X#X#X#X#X#X#X#X#X#X#X#X#X#X#X#X",
"#X#X#X#X#X#X#X#X#X#X#X#X#X#X#X#X#X#X#X#X#X#X#X#X#X#X#X#X#X#X#X#X#X#X#X#X#X#X#X#X#X#X#X#X#X#X#X#X#X#X#X#X#X#X#X#X#X#X#X#X",
"#X#X#X#X#X#X#X#X#X#X#X#X#X#X#X#X#X#X#X#X#X#X#X#X#X#X#X#X#X#X#X#X#X#X#X#X#X#X#X#X#X#X#X#X#X#X#X#X#X#X#X#X#X#X#X#X#X#X#X#X",
"#X#X#X#X#X#X#X#X#X#X#X#X#X#X#X#X#X#X#X#X#X#X#X#X#X#X#X#X#X#X#X#X#X#X#X#X#X#X#X#X#X#X#X#X#X#X#X#X#X#X#X#X#X#X#X#X#X#X#X#X",
"#X#X#X#X#X#X#X#X#X#X#X#X#X#X#X#X#X#X#X#X#X#X#X#X#X#X#X#X#X#X#X#X#X#X#X#X#X#X#X#X#X#X#X#X#X#X#X#X#X#X#X#X#X#X#X#X#X#X#X#X",
"#X#X#X#X#X#X#X#X#X#X#X#X#X#X#X#X#X#X#X#X#X#X#X#X#X#X#X#X#X#X#X#X#X#X#X#X#X#X#X#X#X#X#X#X#X#X#X#X#X#X#X#X#X#X#X#X#X#X#X#X",
"#X#X#X#X#X#X#X#X#X#X#X#X#X#X#X#X#X#X#X#X#X#X#X#X#X#X#X#X#X#X#X#X#X#X#X#X#X#X#X#X#X#X#X#X#X#X#X#X#X#X#X#X#X#X#X#X#X#X#X#X",
"#X#X#X#X#X#X#X#X#X#X#X#X#X#X#X#X#X#X#X#X#X#X#X#X#X#X#X#X#X#X#X#X#X#X#X#X#X#X#X#X#X#X#X#X#X#X#X#X#X#X#X#X#X#X#X#X#X#X#X#X",
"#X#X#X#X#X#X#X#X#X#X#X#X#X#X#X#X#X#X#X#X#X#X#X#X#X#X#X#X#X#X#X#X#X#X#X#X#X#X#X#X#X#X#X#X#X#X#X#X#X#X#X#X#X#X#X#X#X#X#X#X",
"#X#X#X#X#X#X#X#X#X#X#X#X#X#X#X#X#X#X#X#X#X#X#X#X#X#X#X#X#X#X#X#X#X#X#X#X#X#X#X#X#X#X#X#X#X#X#X#X#X#X#X#X#X#X#X#X#X#X#X#X"
};
