/* XPM */
static char *_86746bd6018415e8ea3e7f87f87c353qWS25cQBKyt8yDSX[] = {
/* columns rows colors chars-per-pixel */
"60 60 2 1 ",
"  c black",
". c blue",
/* pixels */
"                                                            ",
"                                                            ",
"                                                            ",
"                                                            ",
"                                                            ",
"                                                            ",
"                                                            ",
"                                                            ",
"                    ....................                    ",
"                    ....................                    ",
"                    ....................                    ",
"                    ....................                    ",
"                ............................                ",
"                ............................                ",
"                ............................                ",
"                ............................                ",
"            ............            ............            ",
"            ............            ............            ",
"            ............            ............            ",
"            ............            ............            ",
"            ........                    ........            ",
"            ........                    ........            ",
"            ........                    ........            ",
"            ........                    ........            ",
"            ........                                        ",
"            ........                                        ",
"            ........                                        ",
"            ........                                        ",
"            ........                                        ",
"            ........                                        ",
"            ........                                        ",
"            ........                                        ",
"            ........                                        ",
"            ........                                        ",
"            ........                                        ",
"            ........                                        ",
"            ........                    ........            ",
"            ........                    ........            ",
"            ........                    ........            ",
"            ........                    ........            ",
"            ............            ............            ",
"            ............            ............            ",
"            ............            ............            ",
"            ............            ............            ",
"                ............................                ",
"                ............................                ",
"                ............................                ",
"                ............................                ",
"                    ....................                    ",
"                    ....................                    ",
"                    ....................                    ",
"                    ....................                    ",
"                                                            ",
"                                                            ",
"                                                            ",
"                                                            ",
"                                                            ",
"                                                            ",
"                                                            ",
"                                                            "
};
