/* XPM */
static char *_05d444444374570de3a27d58aed2969S9zQ6v4RkTLs4ASP[] = {
/* columns rows colors chars-per-pixel */
"60 60 196 2 ",
"   c #253F9C",
".  c #0D35AC",
"X  c #0D38A9",
"o  c #1C3BAC",
"O  c #143AAE",
"+  c #092EBC",
"@  c #0D36B2",
"#  c #0F3BB7",
"$  c #0236BE",
"%  c #0D35BC",
"&  c #0C3DBE",
"*  c #1633B1",
"=  c #133BB3",
"-  c #1333B9",
";  c #123ABA",
":  c #193CBB",
">  c #203FBC",
",  c #1D43B2",
"<  c #3B52A2",
"1  c #2A4CB7",
"2  c #2948BC",
"3  c #2444B1",
"4  c #2651B9",
"5  c #3157BC",
"6  c #4159BD",
"7  c #4D65BB",
"8  c #6478BF",
"9  c #0C33C3",
"0  c #0A39C6",
"q  c #0434CD",
"w  c #0D36CB",
"e  c #0439CE",
"r  c #0B3ACC",
"t  c #0432C6",
"y  c #1434C3",
"u  c #153CC4",
"i  c #1C3FC2",
"p  c #1136CA",
"a  c #143CCF",
"s  c #002FDB",
"d  c #0334D3",
"f  c #0B35D2",
"g  c #0239D3",
"h  c #0C39D5",
"j  c #0435DC",
"k  c #0A35DA",
"l  c #0239DC",
"z  c #0B3BDB",
"x  c #1138D1",
"c  c #002EE7",
"v  c #012EE9",
"b  c #0235E4",
"n  c #0139E4",
"m  c #0A3AE4",
"M  c #0134EB",
"N  c #0139EB",
"B  c #0135F1",
"V  c #023AF5",
"C  c #0136F9",
"Z  c #1E48C1",
"A  c #1E46C9",
"S  c #1E4ECC",
"D  c #2542C0",
"F  c #224EC7",
"G  c #2C4ECA",
"H  c #2343CA",
"J  c #2650C6",
"K  c #2D50C4",
"L  c #2954C9",
"P  c #3E5BC1",
"I  c #2B54D2",
"U  c #3457D7",
"Y  c #3A5ED8",
"T  c #335CDA",
"R  c #3C64DC",
"E  c #3F68DC",
"W  c #3963D1",
"Q  c #425EC2",
"!  c #4461C7",
"~  c #4C66CD",
"^  c #486CC8",
"/  c #5872CF",
"(  c #456AD2",
")  c #4667DB",
"_  c #4865DA",
"`  c #5667D3",
"'  c #5978D3",
"]  c #617FD9",
"[  c #456DE6",
"{  c #4D72E4",
"}  c #5878E7",
"|  c #587EE9",
" . c #667FF6",
".. c #6986D8",
"X. c #718DD6",
"o. c #6E87E3",
"O. c #6F88E5",
"+. c #7D94E2",
"@. c #6288F5",
"#. c #6383FA",
"$. c #718EF4",
"%. c #7B9BFF",
"&. c #7298FB",
"*. c #8B96C4",
"=. c #96A5CE",
"-. c #889FEB",
";. c #809FF2",
":. c #879FFF",
">. c #8FA9F3",
",. c #83A3FF",
"<. c #8BA5FF",
"1. c #83A4F5",
"2. c #91A4F0",
"3. c #90A5FF",
"4. c #92A9FF",
"5. c #95AEF1",
"6. c #94B2FF",
"7. c #9BB4FE",
"8. c #9BBAFF",
"9. c #A7BDFF",
"0. c #ABBEFF",
"q. c #A4C1FF",
"w. c #ABC6FF",
"e. c #AFCFFF",
"r. c #B3C6FF",
"t. c #BDC6FF",
"y. c #B4CDFF",
"u. c #BDCEFF",
"i. c #AFD0FF",
"p. c #B5D3FF",
"a. c #BBD0FF",
"s. c #C8D2FF",
"d. c #C5DCFF",
"f. c #CEDBFF",
"g. c #D4DCFF",
"h. c #C6E4FF",
"j. c #CBE2FF",
"k. c #D5E5FF",
"l. c #D4EAFF",
"z. c #DCEBFF",
"x. c #D4F1FF",
"c. c #DBF2FF",
"v. c #FEFFEE",
"b. c #E6EDFF",
"n. c #E3F2FF",
"m. c #ECF4FF",
"M. c #E4FAFF",
"N. c #ECFEFF",
"B. c #F3F9F7",
"V. c #FCFEF5",
"C. c #F3F7FF",
"Z. c #FDF7FD",
"A. c #F4FEFF",
"S. c #FBFFFB",
"D. c #FBFFFA",
"F. c #F9FDFA",
"G. c #FFFDF9",
"H. c #FFFFF8",
"J. c #FEFFF8",
"K. c #FFFDFB",
"L. c #FCFFFB",
"P. c #FCFFFA",
"I. c #FEFFFA",
"U. c #FFFFFA",
"Y. c #FFFFFB",
"T. c #FFFEFB",
"R. c #FCFEF8",
"E. c #FBFAFE",
"W. c #FDFBFF",
"Q. c #FFFBFF",
"!. c #FFFAFE",
"~. c #FEF9FF",
"^. c #FBFFFD",
"/. c #FBFDFF",
"(. c #F9FFFF",
"). c #F8FFFF",
"_. c #FBFFFF",
"`. c #FBFEFF",
"'. c #F9FEFE",
"]. c #FFFDFD",
"[. c #FCFFFD",
"{. c #FFFEFD",
"}. c #FEFFFD",
"|. c #FFFFFD",
" X c #FEFEFC",
".X c #FFFCFF",
"XX c #FFFDFF",
"oX c #FFFDFF",
"OX c #FCFFFF",
"+X c #FCFEFF",
"@X c #FFFEFF",
"#X c #FEFFFF",
"$X c white",
"%X c #FEFEFF",
"&X c #FDFDFF",
"*X c #FFFFFF",
/* pixels */
"$X$X$X$X$X$X$X$X$X$X$X$X$X$X$XK.K.J.K.$X$X$X$X$X$XG.K.$X$X$X$X$XW.$X$X_._._.$XK.$X$X$X_._._.$XK.$X$X$X$X$X$X$X$X$X$X$X$X",
"$X$X$X$X$X$X$X$X$X$X$X$X$X$X$X$XK.K.K.$X$X$XW.$X$XK.K.$X$X$X$XW.$X$X_._._.K.K.$X$X$X$X_._._.K.$X$X$X$X$X$X$X$X$X$X$X$X$X",
"$X$X$X$X$X$X$X$X$X$X$X$X$X$X$X$X_._._.$X$XW.$X$X$X$X$X$X$X$X$X$XK.$XK.F.V.F.K.$X$X$X_.F._._.$X$X$X$X$X$X$X$X$X$X$X$X$X$X",
"$X$X$X$X$X$X$X$X$X$X$X$X$X$X$X$X_._._.$XW.$X$XK.K.$X$X$X$X$XK.K.$XK.K.J.K.K.K.$X$X$X_.K.K.K.K.$X$X$X$X$X$X$X$X$X$X$X$X$X",
"$X$X$X$X$X$X$X$X$X$X$X$X$X$X$X$X$X$X$X_._.K.V.J.K.$XW.$X$X_.F.F.$XW.$XK.K.$X$X$X$XW.$XK.K.$XW.W.$X$X$X$X$X$X$X$X$X$X$X$X",
"$X$X$X$X$X$X$X$X$X$X$X$X$X$X$X$X$X$X$X$X_.F.V.J.K.$X$X$X$X$XF.K.$X$X$X$X$X$X$X$X$X$X$XK.K.$X$X$X$X$X$X$X$X$X$X$X$X$X$X$X",
"$X$X$X$X$X$X$X$X$X$X$X$X$X$X$XK.J.J.$X$X$X$XF.F.$X_.$XW.$X$X$X$X$X$XF._._.K.K.$X$XK.F.F.F._._.$X$X$X$X$X$X$X$X$X$X$X$X$X",
"$X$X$X$X$X$X$X$X$X$X$X$X$X$X$X$XJ.J.K.$X$X$X$X$XF._.$X$XW.W.W.K.K.F.$X$XF.$X$XK.K.K.K.F.F._.A._.$X$X$X$X$X$X$X$X$X$X$X$X",
"$X$X$X$X$X$X$X$X$X$X$X$X$X$X$X$X_.F.F.K.$X$XE.K.K.J.$X$XW.W.J.V.J.F.$XW.W.$X$XW.K.K.K.F._.A.B._._.$X$X$X$X$X$X$X$X$X$X$X",
"$X$X$X$X$X$X$X$X$X$X$X$X$X$X$X$X_.F.F.K.F.F.$X$XJ.K.$X_.E._.$XF._.A._._.W.Z.E.$X$XV.$XK.$X_._.$X$X$X$X$X$X$X$X$X$X$X$X$X",
"$X$X$X$X$X$X$X$X$X$X$X$X$X$X$X$X$X$X$XK.$XK._.F.$X$XA.B.N.M.M.x.y.k.M.A.A.C._._._.K.K.K.G.W.W.W.$X$X$X$X$X$X$X$X$X$X$X$X",
"$X$X$X$X$X$X$X$X$X$X$X$X$X$X$X$XZ.W.$XW.V.$X_._.C.A.k.7...^ 4 X X O 3 P ' +.r.N.A.A.W.$XZ.W.W.W.W.$X$X$X$X$X$X$X$X$X$X$X",
"$X$X$X$X$X$X$X$X$X$X$X$X$X$X$X$XW.W.W.$XK._.A.A.0. .H 9 0 e d j l g d e w 9 u Y ,.l.B.m.$XW.Z.$X$X$X$X$X$X$X$X$X$X$X$X$X",
"$X$X$X$X$X$X$X$X$X$X$X$X$X$X$X$XZ.$XZ.$XA.A.j./ - f s b b n V V M N n b n n M j + O 8 z._.$X$XW.$X$X$X$X$X$X$X$X$X$X$X$X",
"$X$X$X$X$X$X$X$X$X$X$X$X$X$X$X$X$XG.A.A.N.q.K 9 k b n M N M M c M M b b M B B M z . X.N.A.K.K.K.$X$X$X$X$X$X$X$X$X$X$X$X",
"$X$X$X$X$X$X$X$X$X$X$X$X$X$X$X$XJ.$XA.N.1.= q b b M n b b b n j m j k k b M C B d = p.A._.K.K.G.K.$X$X$X$X$X$X$X$X$X$X$X",
"$X$X$X$X$X$X$X$X$X$X$X$X$X$X$XK.K._.W.t.; d b M V c N M c m q 0 % 9 x f z s C M h ( M.A.$XG.G.$XW.$X$X$X$X$X$X$X$X$X$X$X",
"$X$X$X$X$X$X$X$X$X$X$X$X$X$X$X$XF.A.C.` f N n M M M j k y U @.,.i.6.%.#.[ ; q h * 7.N.B.$XW.W.W.$X$X$X$X$X$X$X$X$X$X$X$X",
"$X$X$X$X$X$X$X$X$X$X$X$X$X$X$X_.F.N.4.+ l N n n M b x D 9.N.N.N.A.A.A.A.N.p...  < N.A.$XW.$X_._.$X$X$X$X$X$X$X$X$X$X$X$X",
"$X$X$X$X$X$X$X$X$X$X$X$X$X$X$X_.N.c.G k n N n n j e G r.A._._.$XV.J.$XC.A.A.N.k.*._.C.$X$XE._.F.$X$X$X$X$X$X$X$X$X$X$X$X",
"$X$X$X$X$X$X$X$X$X$X$X$X$X$X$X_.A.>.w M b l l l g S d.N._.G.W.W.K.V.W.W.$X_._.C._.W.W.$XW.K.V.V.K.$X$X$X$X$X$X$X$X$X$X$X",
"$X$X$X$X$X$X$X$X$X$X$X$X$X$X$X_.N.! h M M n n e $ &.N.A.$XW.Z.Z.$X$X$X$X$XF.$X$X$XZ.W.W.$XK.V.V.K.$X$X$X$X$X$X$X$X$X$X$X",
"$X$X$X$X$X$X$X$X$X$X$X$X$X$X$XA.a.i d B M M M g , h.A.$Xm._.$XK._.A.C.A._.A._.$XG.$XW.W.W.W.$X_.$X$X$X$X$X$X$X$X$X$X$X$X",
"$X$X$X$X$X$X$X$X$X$X$X$X$X$X$XA.$.9 j M v M M p o.A.C.E._.A.J.K.A._._._._.$X$XJ.W.K.$XW.$X$X_._._.$X$X$X$X$X$X$X$X$X$X$X",
"$X$X$X$X$X$X$X$X$XF.$X$X$X$X$XN.W d b M M B M w u.E.$X_._.A.K.J.$X$X$X$X$X$X$XK.J.J.K.K.$X$X$X_.$X$X$X$X$X$X$X$X$X$X$X$X",
"$X$X$X$X$X$X$X$X$X$X$X$X$X$X_.A.J l n n M N B 9 g.W.K.J.F.F.K.K.W.G.K.K.$X$XK.K.K.K.K.K.K._.$X$X$X$X$X$X$X$X$X$X$X$X$X$X",
"$X$X$X$X$X$XK.$X$X$X$X$X$XW.W.N.# n N M N M M 9 m.W.v.v.J._.$X$X$XG.J.J.K.K.$X$X$X$X_._._._.$X$X$X$X$X$X$X$X$X$X$X$X$X$X",
"$X$X$X$X$X$X$XK.$X$X$X$XW.$X$Xb.% N B M M n n A A.$XV.v.K.E.$X$XW.$XK.J.J.K.$X$X$X$X_._.F._.$X$X$X$X$X$X$X$X$X$X$X$X$X$X",
"$X$X$X$X$X$XK.$X$XE.$X$XW.W.W.g.y c C B B M n T N._._.$X$X$XK._.$X$X_.F.F.F.$X$X$X_._.F.F.K.K.K.$X$X$X$X$X$X$X$X$X$X$X$X",
"$X$X$X$X$X$X$XK.$XG.$X$XE.$X$Xs.y b B B M N n R A.$X_.$XW.K.K.F.$X_._._._.F.$X$X$X$X_.F.F.K.J.J.K.$X$X$X$X$X$X$X$X$X$X$X",
"$X$X$X$X$X$XK.$X$X$X$X$XW.$XW.k.; b M B n n b I A.G.$X$XW.W.$X$X$X$X_._.$X$X$XW.W.$X_.F._.$XK.K.$X$X$X$X$X$X$X$X$X$X$X$X",
"$X$X$X$X$X$XK.$XW.$XE.$X$X$X$Xn.@ n M M n n j i A.W.K.K.W.$X$X$X$X$X_._.$X$XW.W.$X$X$X_._.$X$X$X$X$X$X$X$X$X$X$X$X$X$X$X",
"$X$X$X$X$X$X$X$X$X$X$X$X$X$X$XA.D d N N l n M y b.Z.$XG.$XW.$X$X$X$XK.$X$X$X$X$XV.F.G.$XA.A.$XW.$X$X$X$X$X$X$X$X$X$X$X$X",
"$X$X$X$X$X$X$X$X$X$X$X$X$X$X$XN.F l M N n n v y g.$X$XG.$XE.$X$XW.$XK.K.$X$XW.W.F.V.V.K._.F.$X$X$X$X$X$X$X$X$X$X$X$X$X$X",
"$X$X$X$X$X$X$X$X$X$X$X$X$X$X$XA.) l c M M M B w w.A.A.R.$X$XW.$X$X$XF.J.K.K.W.W.K.K.W.$XF.F.W.W.$X$X$X$X$X$X$X$X$X$X$X$X",
"$X$X$X$X$X$X$X$X$X$X$X$X$X$X$XA.%.t k b M V B k ' M.A.$X$X$XW.$X$X$XF.V.J.K.W.W.$XW.$XW.F.V.$X$X$X$X$X$X$X$X$X$X$X$X$X$X",
"$X$X$X$X$X$X$X$X$X$X$X$X$X$X$XA.d.- f b M B M j # p.A.$XG.W._.F.K.K.J.F.K.$X$X$XA._.$XE.F.K.$X$X$X$X$X$X$X$X$X$X$X$X$X$X",
"$X$X$X$X$X$X$X$X$X$X$X$X$X$X$X_.A.Q 0 b n B M b e | N.F.W.W.$XV.V.J.K._._._._._.A.A.E.$XF.F.G.$X$X$X$X$X$X$X$X$X$X$X$X$X",
"$X$X$X$X$X$X$X$X$X$X$X$X$X$X$X_.A.-.9 M c M v M l & 8.M.$X$XV.K.K.$X$X$X$X$XK._.A.m.$XW._.F.K.K.$X$X$X$X$X$X$X$X$X$X$X$X",
"$X$X$X$X$X$X$X$X$X$X$X$X$X$X$X_.A.d.: m b M B M n d . %.N.C._._._.A._.E.A.A.N.N.y.=.W.$X_._.K.K.K.$X$X$X$X$X$X$X$X$X$X$X",
"$X$X$X$X$X$X$X$X$X$X$X$X$X$X$X_.A.A.,.y m c V M B N j x } 7.f.M.N.N.N.z.a.<.{ J @ ^ A._._.$X_.$X$X$X$X$X$X$X$X$X$X$X$X$X",
"$X$X$X$X$X$X$X$X$X$X$X$X$X$X$X$XF.A.A.~ w b M V M M B n x 9 * 2 ( 5 o * - 9 d l d [ N.C.$X$XE.$X$X$X$X$X$X$X$X$X$X$X$X$X",
"$X$X$X$X$X$X$X$X$X$X$X$X$X$X$X$XF.B.A.u.O q n M M B N b b b d g e q 9 k k k j l m ) A.$XW.$XK.V.$X$X$X$X$X$X$X$X$X$X$X$X",
"$X$X$X$X$X$X$X$X$X$X$X$X$X$X$X$XK.R.$XA.y.L r l M N n n M B N N N n b b c m M b g ) m.$X$XE.K.F.K.$X$X$X$X$X$X$X$X$X$X$X",
"$X$X$X$X$X$X$X$X$X$X$X$X$X$X$X$XE.$X$XA.A.d.~ y k M M M M M M M n n b b M M B v k _ A.W.$X$XE.$X$X$X$X$X$X$X$X$X$X$X$X$X",
"$X$X$X$X$X$X$X$X$X$X$X$X$X$X$X$X$XW.$XE._.A.c.o., p h f e z j b m l e g h j k p : 7 _.W.W.$X$XW.$X$X$X$X$X$X$X$X$X$X$X$X",
"$X$X$X$X$X$X$X$X$X$X$X$X$X$X$X$XW.W.$X_.K._.N.A.c.2.6 o . # % y % % ; . X 1 ] 5.j.N.$XG.$XC.$XF.$X$X$X$X$X$X$X$X$X$X$X$X",
"$X$X$X$X$X$X$X$X$X$X$X$X$X$X$X$XW.$XW.$XV.K.K.A._.A.A.z.h.e.7.3.<.7.y.j.c.N.N.A.A.K.K.$XE._.K.K.$X$X$X$X$X$X$X$X$X$X$X$X",
"$X$X$X$X$X$X$X$X$X$X$X$X$X$X$X$X$X$X$X$XK.$XK._._.$X_.A.A.A.A._._.A.A.A._.A._._.$X$X$X$X$X$X$XK.$X$X$X$X$X$X$X$X$X$X$X$X",
"$X$X$X$X$X$X$X$X$X$X$X$X$X$X$X$X$X$X$X$X$X$X$X$X$X$X$X$X$X$X$X$X$X$X$X$X$X$X$X$X$X$X$X$X$X$X$X$X$X$X$X$X$X$X$X$X$X$X$X$X",
"$X$X$X$X$X$X$X$X$X$X$X$X$X$X$X$X$X$X$X$X$X$X$X$X$X$X$X$X$X$X$X$X$X$X$X$X$X$X$X$X$X$X$X$X$X$X$X$X$X$X$X$X$X$X$X$X$X$X$X$X",
"$X$X$X$X$X$X$X$X$X$X$X$X$X$X$X$X$X$X$X$X$X$X$X$X$X$X$X$X$X$X$X$X$X$X$X$X$X$X$X$X$X$X$X$X$X$X$X$X$X$X$X$X$X$X$X$X$X$X$X$X",
"$X$X$X$X$X$X$X$X$X$X$X$X$X$X$X$X$X$X$X$X$X$X$X$X$X$X$X$X$X$X$X$X$X$X$X$X$X$X$X$X$X$X$X$X$X$X$X$X$X$X$X$X$X$X$X$X$X$X$X$X",
"$X$X$X$X$X$X$X$X$X$X$X$X$X$X$X$X$X$X$X$X$X$X$X$X$X$X$X$X$X$X$X$X$X$X$X$X$X$X$X$X$X$X$X$X$X$X$X$X$X$X$X$X$X$X$X$X$X$X$X$X",
"$X$X$X$X$X$X$X$X$X$X$X$X$X$X$X$X$X$X$X$X$X$X$X$X$X$X$X$X$X$X$X$X$X$X$X$X$X$X$X$X$X$X$X$X$X$X$X$X$X$X$X$X$X$X$X$X$X$X$X$X",
"$X$X$X$X$X$X$X$X$X$X$X$X$X$X$X$X$X$X$X$X$X$X$X$X$X$X$X$X$X$X$X$X$X$X$X$X$X$X$X$X$X$X$X$X$X$X$X$X$X$X$X$X$X$X$X$X$X$X$X$X",
"$X$X$X$X$X$X$X$X$X$X$X$X$X$X$X$X$X$X$X$X$X$X$X$X$X$X$X$X$X$X$X$X$X$X$X$X$X$X$X$X$X$X$X$X$X$X$X$X$X$X$X$X$X$X$X$X$X$X$X$X",
"$X$X$X$X$X$X$X$X$X$X$X$X$X$X$X$X$X$X$X$X$X$X$X$X$X$X$X$X$X$X$X$X$X$X$X$X$X$X$X$X$X$X$X$X$X$X$X$X$X$X$X$X$X$X$X$X$X$X$X$X",
"$X$X$X$X$X$X$X$X$X$X$X$X$X$X$X$X$X$X$X$X$X$X$X$X$X$X$X$X$X$X$X$X$X$X$X$X$X$X$X$X$X$X$X$X$X$X$X$X$X$X$X$X$X$X$X$X$X$X$X$X",
"$X$X$X$X$X$X$X$X$X$X$X$X$X$X$X$X$X$X$X$X$X$X$X$X$X$X$X$X$X$X$X$X$X$X$X$X$X$X$X$X$X$X$X$X$X$X$X$X$X$X$X$X$X$X$X$X$X$X$X$X"
};
