/* XPM */
static char *a4be48c041e44d1cde8c83067e8be2c3awwDPP85EhWGGloj[] = {
/* columns rows colors chars-per-pixel */
"60 60 191 2 ",
"   c #1AB533",
".  c #16BE34",
"X  c #19BF31",
"o  c #1DBE3B",
"O  c #21BA3B",
"+  c #28BF3C",
"@  c #01CD1C",
"#  c #01D31D",
"$  c #00C724",
"%  c #02CD24",
"&  c #0ECE26",
"*  c #0BC02C",
"=  c #04CD2C",
"-  c #0BCD2D",
";  c #12CC2A",
":  c #02D424",
">  c #08D324",
",  c #01D924",
"<  c #09D824",
"1  c #03D32B",
"2  c #0AD32B",
"3  c #03D92A",
"4  c #09D92C",
"5  c #13D22C",
"6  c #04CB32",
"7  c #0CCD32",
"8  c #0CCE3A",
"9  c #0CC333",
"0  c #15C434",
"q  c #1AC435",
"w  c #13CB32",
"e  c #19CD36",
"r  c #14C43A",
"t  c #1CC43A",
"y  c #14CA3C",
"u  c #1ACC3D",
"i  c #00D730",
"p  c #0CD231",
"a  c #0BD934",
"s  c #09D538",
"d  c #1DD13E",
"f  c #14D433",
"g  c #23C23B",
"h  c #1EBD43",
"j  c #2BB544",
"k  c #24BC41",
"l  c #2BBC44",
"z  c #2DB548",
"x  c #2DBD4B",
"c  c #32B54C",
"v  c #36BE4F",
"b  c #33B650",
"n  c #16C443",
"m  c #1CC340",
"M  c #24C242",
"N  c #2CC344",
"B  c #36CB4B",
"V  c #2ACC52",
"C  c #39CF52",
"Z  c #3EC658",
"A  c #3ECA5F",
"S  c #38D15C",
"D  c #40CA5B",
"F  c #43C55B",
"G  c #44D35F",
"H  c #44C362",
"J  c #49C660",
"K  c #52C566",
"L  c #52CF67",
"P  c #5FC66B",
"I  c #56C868",
"U  c #47D664",
"Y  c #4DD964",
"T  c #4DDB6B",
"R  c #53D666",
"E  c #58D56F",
"W  c #5BC772",
"Q  c #58CE76",
"!  c #67CD7A",
"~  c #64D271",
"^  c #66D97C",
"/  c #67DE80",
"(  c #6FDC83",
")  c #68E982",
"_  c #6FED89",
"`  c #71E084",
"'  c #73EA83",
"]  c #7DE78D",
"[  c #74EE8D",
"{  c #79EF8C",
"}  c #75F18C",
"|  c #7FE292",
" . c #75EF95",
".. c #79EE92",
"X. c #8DE291",
"o. c #88E19D",
"O. c #84ED98",
"+. c #8FED99",
"@. c #8DF09E",
"#. c #8BF998",
"$. c #88EDA1",
"%. c #98E4A3",
"&. c #9AF4A7",
"*. c #94FBA4",
"=. c #98FFA4",
"-. c #99FFAD",
";. c #A3FFAD",
":. c #A3EFB1",
">. c #AFF5B7",
",. c #A0FFB6",
"<. c #AAFFB5",
"1. c #ACFDB8",
"2. c #B4FABD",
"3. c #B5FFC2",
"4. c #BFFFC7",
"5. c #BCFFCA",
"6. c #B5FFD0",
"7. c #C4FFC2",
"8. c #CAFFCE",
"9. c #C2FFD1",
"0. c #C9FFD5",
"q. c #CCFFDD",
"w. c #D5FFD6",
"e. c #D3FFDE",
"r. c #E3FFDD",
"t. c #CFFFE4",
"y. c #D4FFE2",
"u. c #DDFFE4",
"i. c #D5FFEA",
"p. c #DCFFEA",
"a. c #DCFFF2",
"s. c #E3FFE4",
"d. c #EDFFE6",
"f. c #E4FFEC",
"g. c #ECFFEC",
"h. c #F4FFEC",
"j. c #E5FFF2",
"k. c #ECFFF3",
"l. c #EEFFF8",
"z. c #F3FFF4",
"x. c #FEFEF5",
"c. c #F7FFFF",
"v. c #F5FEFE",
"b. c #F4FFFB",
"n. c #FBFAF9",
"m. c #FBFFFA",
"M. c #F9FDF9",
"N. c #FFFFF8",
"B. c #FEFFF9",
"V. c #FDFDFB",
"C. c #FFFDFB",
"Z. c #FCFFFB",
"A. c #FDFFFB",
"S. c #FEFFFA",
"D. c #FFFFFA",
"F. c #FFFEFB",
"G. c #FEFFFB",
"H. c #FFFFFB",
"J. c #FDFEF8",
"K. c #FAFAFE",
"L. c #FFFAFF",
"P. c #FFF8FF",
"I. c #FBFFFD",
"U. c #FBFFFD",
"Y. c #F8FFFF",
"T. c #F9FFFF",
"R. c #FBFFFE",
"E. c #FBFFFF",
"W. c #FAFEFF",
"Q. c #F9FDFE",
"!. c #FFFCFD",
"~. c #FFFDFD",
"^. c #FFFCFC",
"/. c #FCFFFD",
"(. c #FFFEFD",
"). c #FEFFFD",
"_. c #FFFFFD",
"`. c #FCFDFF",
"'. c #FFFCFF",
"]. c #FFFDFF",
"[. c #FFFDFE",
"{. c #FDFFFE",
"}. c #FDFEFF",
"|. c #FCFFFF",
" X c #FCFEFF",
".X c #FFFEFF",
"XX c #FEFFFF",
"oX c white",
"OX c #FEFEFF",
"+X c gray99",
"@X c #FFFFFF",
/* pixels */
"oXoXoXoXoXoXoXoXoXoXoXoXoXoXoXoXoXoXoXoXT.c.c.T.L.oXoXL.oXoXJ.N.C.L.oXoXoXoXL.oXC.J.L.oXoXoXoXT.oXoXoXoXoXoXoXoXoXoXoXoX",
"oXoXoXoXoXoXoXoXoXoXoXoXoXoXoXoXoXoXC.oXT.c.T.oXL.J.oXJ.oXoXJ.J.oXoXoXoXT.oXoXoXL.oXoXJ.oXoXoXoXoXoXoXoXoXoXoXoXoXoXoXoX",
"oXoXoXoXoXoXoXoXoXoXoXoXoXoXoXoXoXoXJ.J.J.T.oXJ.N.x.N.oXoXT.T.T.J.oXT.T.c.oXoXoXoXJ.J.J.J.J.J.J.oXoXoXoXoXoXoXoXoXoXoXoX",
"oXoXoXoXoXoXoXoXoXoXoXoXoXoXoXoXoXoXoXJ.J.oXoXJ.N.x.N.J.oXT.T.oXoXoXT.c.T.T.oXoXoXoXJ.oXJ.oXoXL.oXoXoXoXoXoXoXoXoXoXoXoX",
"oXoXoXoXoXoXoXoXoXoXoXoXoXoXoXoXoXoXoXJ.oXoXoXoXJ.oXoXoXoXoXoXoXL.oXoXoXoXoXoXoXJ.oXoXT.oXT.oXoXoXoXoXoXoXoXoXoXoXoXoXoX",
"oXoXoXoXoXoXoXoXoXoXoXoXoXoXoXoXoXL.oXoXoXoXL.oXoXoXoXL.L.oXL.oXoXoXoXoXoXJ.oXJ.oXoXT.oXT.oXoXL.oXoXoXoXoXoXoXoXoXoXoXoX",
"oXoXoXoXoXoXoXoXoXoXoXoXoXoXoXoXoXoXoXoXL.L.J.oXoXoXL.oXoXL.L.oXoXC.J.oXoXL.C.oXoXoXT.T.T.oXoXC.oXoXoXoXoXoXoXoXoXoXoXoX",
"oXoXoXoXoXoXoXoXoXoXoXoXoXoXoXoXoXL.oXoXoXJ.oXJ.oXJ.oXoXoXoXoXoXoXoXoXoXJ.J.oXL.oXoXT.T.J.J.C.C.oXoXoXoXoXoXoXoXoXoXoXoX",
"oXoXoXoXoXoXoXoXoXoXoXoXoXoXoXoXoXoXoXm.oXJ.J.J.J.oXoXT.oXJ.oXoXT.oXT.J.J.oXJ.C.L.oXoXT.T.m.oXoXoXoXoXoXoXoXoXoXoXoXoXoX",
"oXoXoXoXoXoXoXoXoXoXoXoXoXoXoXoXoXK.L.oXJ.m.M.T.T.oXoXoXJ.J.J.J.T.oXT.oXoXoXoXoXn.oXT.oXoXoXoXJ.oXoXoXoXoXoXoXoXoXoXoXoX",
"oXoXoXoXoXoXoXoXoXoXoXoXoXoXoXoXT.T.oXoXz.b.m.J.oXL.oXoXoXJ.J.oXoXoXoXoXm.T.oXL.oXoXK.oXoXn.J.J.J.oXoXoXoXoXoXoXoXoXoXoX",
"oXoXoXoXoXoXoXoXoXoXoXoXoXoXoXoXT.n.n.m.j.p.u.y.f.f.p.p.u.s.u.s.u.f.f.f.f.j.k.b.c.K.T.oXn.m.J.J.oXoXoXoXoXoXoXoXoXoXoXoX",
"oXoXoXoXoXoXoXoXoXoXoXoXoXoXoXoXoXL.J.f.o.b k k M M m t g g g + N B C G ) ,.q.p.k.c.T.K.T.L.oXC.oXoXoXoXoXoXoXoXoXoXoXoX",
"oXoXoXoXoXoXoXoXoXoXoXoXoXoXoXoXL.P.N.g...n = 1 > : , , # : : & 4 % % f 0   F | 9.f.l.c.oXoXK.L.oXoXoXoXoXoXoXoXoXoXoXoX",
"oXoXoXoXoXoXoXoXoXoXoXoXoXoXoXoXoXoXN.s.[ r p : > : , , , : 1 1 1 1 5 & & 5 w 0 A +.s.z.N.oXT.T.oXoXoXoXoXoXoXoXoXoXoXoX",
"oXoXoXoXoXoXoXoXoXoXoXoXoXoXoXoXoXJ.z.s.} 0 2 : % > 1 , , 1 1 1 1 1 > @ # # # 1 w l +.r.x.L.T.c.T.oXoXoXoXoXoXoXoXoXoXoX",
"oXoXoXoXoXoXoXoXoXoXoXoXoXoXoXoXoXm.T.f.{ q 2 1 < @ : 1 : : 1 % : : , : # : > > > - O &.z.L.c.c.T.oXoXoXoXoXoXoXoXoXoXoX",
"oXoXoXoXoXoXoXoXoXoXoXoXoXoXoXoXoXoXT.f.{ q = : # : 4 $ d . g g t . 7 = : , : # : 4 7 Z s.M.T.T.oXoXoXoXoXoXoXoXoXoXoXoX",
"oXoXoXoXoXoXoXoXoXoXoXoXoXoXoXoXL.L.L.j.{ q > : : : 1 r -.1.2.2.>.&./ k 8 i : : : a = o :.z.z.m.oXoXoXoXoXoXoXoXoXoXoXoX",
"oXoXoXoXoXoXoXoXoXoXoXoXoXoXoXL.L.L.oXf.} q = : , : 1 h e.g.z.z.g.k.y.,.V 6 = 3 1 % 1 u ! f.z.J.J.oXoXoXoXoXoXoXoXoXoXoX",
"oXoXoXoXoXoXoXoXoXoXoXoXoXoXoXoXoXL.oXf.{ q - : : : 1 m i.b.m.T.T.M.z.s.*.N 8 1 > : # - J y.z.oXoXoXoXoXoXoXoXoXoXoXoXoX",
"oXoXoXoXoXoXoXoXoXoXoXoXoXoXoXoXoXoXoXg.{ q - : , : : m i.oXJ.J.L.oXJ.h.e.E * : # : # 2 z e.k.oXoXoXoXoXoXoXoXoXoXoXoXoX",
"oXoXoXoXoXoXoXoXoXoXoXoXoXoXoXoXoXm.m.f.{ 0 2 : % : < g u.J.N.N.J.J.J.h.u.( w , # # , 2 O 5.k.oXoXoXoXoXoXoXoXoXoXoXoXoX",
"oXoXoXoXoXoXoXoXoXoXoXoXoXoXoXoXoXm.J.f.{ r i 1 > : # o i.T.N.N.J.oXoXz.p.O.. , > : : 6 c 3.g.L.oXoXoXoXoXoXoXoXoXoXoXoX",
"oXoXoXoXoXoXoXoXoXoXoXoXoXoXoXoXoXT.J.f.{ 0 1 1 > > : o a.c.T.T.T.c.oXb.y.^ 0 1 4 $ 1 8 b 0.h.N.oXoXoXoXoXoXoXoXoXoXoXoX",
"oXoXoXoXoXoXoXoXoXoXoXoXoXoXoXoXoXoXoXf.} r 1 : : : 1 M i.T.oXT.T.T.c.f.q.v e > % a 1 9 H e.h.J.oXoXoXoXoXoXoXoXoXoXoXoX",
"oXoXoXoXoXoXoXoXoXoXoXoXoXoXoXoXL.L.oXf.} 0 1 : : : : M f.oXoXJ.J.N.z.y.' 0 % 1 = 1 : 0 Q t.z.J.J.oXoXoXoXoXoXoXoXoXoXoX",
"oXoXoXoXoXoXoXoXoXoXoXoXoXoXoXoXL.oXoXf.} 0 2 : @ : 1 t e.h.d.d.d.r.w.*.g - & : 1 : 2 . $.a.b.T.oXoXoXoXoXoXoXoXoXoXoXoX",
"oXoXoXoXoXoXoXoXoXoXoXoXoXoXoXoXoXoXoXf.[ q 6 : < , # w *.1.;.=.#.} S r % # < # 1 1 2 g 0.b.c.oXoXoXoXoXoXoXoXoXoXoXoXoX",
"oXoXoXoXoXoXoXoXoXoXoXoXoXoXoXoXoXJ.oXf.{ q - 1 # # , 2 q o O g . u = i < @ : < : 6 O ' s.T.T.oXoXoXoXoXoXoXoXoXoXoXoXoX",
"oXoXoXoXoXoXoXoXoXoXoXoXoXoXoXL.J.oXT.f.{ r 1 : < : % 1 = p p = s = > # : : , # 1 y ~ w.g.oXoXoXoXoXoXoXoXoXoXoXoXoXoXoX",
"oXoXoXoXoXoXoXoXoXoXoXoXoXoXoXoXoXL.T.f.{ r i 1 # : < # 1 : : , : 4 # # : 1 % - y D 8.h.J.n.oXm.oXoXoXoXoXoXoXoXoXoXoXoX",
"oXoXoXoXoXoXoXoXoXoXoXoXoXoXoXoXoXL.N.g. .n 6 1 1 1 , : 1 : # # # , # # 3 2 0 l ` 5.h.x.J.oXT.oXoXoXoXoXoXoXoXoXoXoXoXoX",
"oXoXoXoXoXoXoXoXoXoXoXoXoXoXoXoXoXL.x.s. .n 6 < : : : 1 7 w ; ; f w 7 w q O L &.e.h.N.n.L.L.m.T.oXoXoXoXoXoXoXoXoXoXoXoX",
"oXoXoXoXoXoXoXoXoXoXoXoXoXoXoXoXoXoXx.s.} r 1 # , : 3 7 M z c c b J K P X.7.r.d.z.m.T.oXoXoXK.oXoXoXoXoXoXoXoXoXoXoXoXoX",
"oXoXoXoXoXoXoXoXoXoXoXoXoXoXoXoXoXJ.N.s.} w : # # : % 0 6.q.q.y.t.y.u.s.d.h.h.M.J.T.T.oXT.oXoXoXoXoXoXoXoXoXoXoXoXoXoXoX",
"oXoXoXoXoXoXoXoXoXoXoXoXoXoXoXoXL.T.J.s.} q # # , : 4 m q.f.k.k.b.l.z.z.M.M.m.m.oXT.T.oXT.T.J.J.oXoXoXoXoXoXoXoXoXoXoXoX",
"oXoXoXoXoXoXoXoXoXoXoXoXoXoXoXoXoXoXoXf.' q > # # # 1 o i.c.oXoXL.oXL.oXJ.m.m.oXT.v.T.T.oXoXoXJ.oXoXoXoXoXoXoXoXoXoXoXoX",
"oXoXoXoXoXoXoXoXoXoXoXoXoXoXoXoXoXoXoXf.{ g - : < : : g y.oXL.P.oXoXoXm.oXoXm.T.T.oXoXoXL.C.N.J.J.oXoXoXoXoXoXoXoXoXoXoX",
"oXoXoXoXoXoXoXoXoXoXoXoXoXoXoXoXoXoXoXk.{ q - > : : , o f.oXC.oXoXT.oXJ.J.M.oXoXL.oXoXL.oXJ.J.N.oXoXoXoXoXoXoXoXoXoXoXoX",
"oXoXoXoXoXoXoXoXoXoXoXoXoXoXoXoXoXL.oXj...t - 1 : , , t u.C.m.m.T.T.m.oXJ.oXoXL.oXL.oXoXoXoXoXJ.oXoXoXoXoXoXoXoXoXoXoXoX",
"oXoXoXoXoXoXoXoXoXoXoXoXoXoXoXoXC.oXT.j.[ t - : : # # q u.oXm.b.oXT.oXoXoXL.oXoXoXoXoXoXoXoXoXoXoXoXoXoXoXoXoXoXoXoXoXoX",
"oXoXoXoXoXoXoXoXoXoXoXoXoXoXoXoXoXoXT.j._ y 4 : , , # q s.J.m.m.oXL.oXoXoXT.T.oXT.T.oXoXJ.oXoXoXoXoXoXoXoXoXoXoXoXoXoXoX",
"oXoXoXoXoXoXoXoXoXoXoXoXoXoXoXL.J.oXT.j._ 0 = : : : : o p.oXT.oXoXL.L.oXoXoXT.T.oXm.m.J.J.oXJ.J.oXoXoXoXoXoXoXoXoXoXoXoX",
"oXoXoXoXoXoXoXoXoXoXoXoXoXoXoXoXoXn.T.f.{ q & : : : 1 g f.oXoXoXoXoXoXoXoXoXoXJ.J.J.oXJ.oXJ.J.oXJ.oXoXoXoXoXoXoXoXoXoXoX",
"oXoXoXoXoXoXoXoXoXoXoXoXoXoXoXoXoXC.J.f.{ t & : 1 = = k f.L.L.L.oXJ.oXL.oXL.oXoXoXoXJ.J.J.oXJ.oXoXoXoXoXoXoXoXoXoXoXoXoX",
"oXoXoXoXoXoXoXoXoXoXoXoXoXoXoXoXoXoXoXf.] g w ; 7 = 8 x p.J.J.L.oXoXoXoXoXoXoXoXoXoXoXL.oXoXoXoXoXoXoXoXoXoXoXoXoXoXoXoX",
"oXoXoXoXoXoXoXoXoXoXoXoXoXoXoXoXoXoXoXz.%.I R Y Y U T W k.C.J.J.oXoXoXoXoXoXoXoXoXoXoXoXoXoXT.oXoXoXoXoXoXoXoXoXoXoXoXoX",
"oXoXoXoXoXoXoXoXoXoXoXoXoXoXoXoXoXoXoXm.k.g.f.f.f.f.f.j.b.oXJ.oXoXoXoXoXoXoXoXoXoXoXoXoXoXoXoXT.oXoXoXoXoXoXoXoXoXoXoXoX",
"oXoXoXoXoXoXoXoXoXoXoXoXoXoXoXoXoXoXoXoXoXoXoXoXoXoXoXoXoXoXoXoXoXoXoXoXoXoXoXoXoXoXoXoXoXoXoXoXoXoXoXoXoXoXoXoXoXoXoXoX",
"oXoXoXoXoXoXoXoXoXoXoXoXoXoXoXoXoXoXoXoXoXoXoXoXoXoXoXoXoXoXoXoXoXoXoXoXoXoXoXoXoXoXoXoXoXoXoXoXoXoXoXoXoXoXoXoXoXoXoXoX",
"oXoXoXoXoXoXoXoXoXoXoXoXoXoXoXoXoXoXoXoXoXoXoXoXoXoXoXoXoXoXoXoXoXoXoXoXoXoXoXoXoXoXoXoXoXoXoXoXoXoXoXoXoXoXoXoXoXoXoXoX",
"oXoXoXoXoXoXoXoXoXoXoXoXoXoXoXoXoXoXoXoXoXoXoXoXoXoXoXoXoXoXoXoXoXoXoXoXoXoXoXoXoXoXoXoXoXoXoXoXoXoXoXoXoXoXoXoXoXoXoXoX",
"oXoXoXoXoXoXoXoXoXoXoXoXoXoXoXoXoXoXoXoXoXoXoXoXoXoXoXoXoXoXoXoXoXoXoXoXoXoXoXoXoXoXoXoXoXoXoXoXoXoXoXoXoXoXoXoXoXoXoXoX",
"oXoXoXoXoXoXoXoXoXoXoXoXoXoXoXoXoXoXoXoXoXoXoXoXoXoXoXoXoXoXoXoXoXoXoXoXoXoXoXoXoXoXoXoXoXoXoXoXoXoXoXoXoXoXoXoXoXoXoXoX",
"oXoXoXoXoXoXoXoXoXoXoXoXoXoXoXoXoXoXoXoXoXoXoXoXoXoXoXoXoXoXoXoXoXoXoXoXoXoXoXoXoXoXoXoXoXoXoXoXoXoXoXoXoXoXoXoXoXoXoXoX",
"oXoXoXoXoXoXoXoXoXoXoXoXoXoXoXoXoXoXoXoXoXoXoXoXoXoXoXoXoXoXoXoXoXoXoXoXoXoXoXoXoXoXoXoXoXoXoXoXoXoXoXoXoXoXoXoXoXoXoXoX",
"oXoXoXoXoXoXoXoXoXoXoXoXoXoXoXoXoXoXoXoXoXoXoXoXoXoXoXoXoXoXoXoXoXoXoXoXoXoXoXoXoXoXoXoXoXoXoXoXoXoXoXoXoXoXoXoXoXoXoXoX",
"oXoXoXoXoXoXoXoXoXoXoXoXoXoXoXoXoXoXoXoXoXoXoXoXoXoXoXoXoXoXoXoXoXoXoXoXoXoXoXoXoXoXoXoXoXoXoXoXoXoXoXoXoXoXoXoXoXoXoXoX",
"oXoXoXoXoXoXoXoXoXoXoXoXoXoXoXoXoXoXoXoXoXoXoXoXoXoXoXoXoXoXoXoXoXoXoXoXoXoXoXoXoXoXoXoXoXoXoXoXoXoXoXoXoXoXoXoXoXoXoXoX"
};
