/* XPM */
static char *_9acfe579d874a578294db6f7372a5fdCyM6YUayBYIr9vBG[] = {
/* columns rows colors chars-per-pixel */
"60 60 2 1 ",
"  c black",
". c green",
/* pixels */
"                                                            ",
"                                                            ",
"                                                            ",
"                                                            ",
"                                                            ",
"                                                            ",
"                                                            ",
"                                                            ",
"                ............................                ",
"                ............................                ",
"                ............................                ",
"                ............................                ",
"                ................................            ",
"                ................................            ",
"                ................................            ",
"                ................................            ",
"                ........                ........            ",
"                ........                ........            ",
"                ........                ........            ",
"                ........                ........            ",
"                ........                ........            ",
"                ........                ........            ",
"                ........                ........            ",
"                ........                ........            ",
"                ................................            ",
"                ................................            ",
"                ................................            ",
"                ................................            ",
"                ............................                ",
"                ............................                ",
"                ............................                ",
"                ............................                ",
"                ........                                    ",
"                ........                                    ",
"                ........                                    ",
"                ........                                    ",
"                ........                                    ",
"                ........                                    ",
"                ........                                    ",
"                ........                                    ",
"                ........                                    ",
"                ........                                    ",
"                ........                                    ",
"                ........                                    ",
"            ....................                            ",
"            ....................                            ",
"            ....................                            ",
"            ....................                            ",
"            ....................                            ",
"            ....................                            ",
"            ....................                            ",
"            ....................                            ",
"                                                            ",
"                                                            ",
"                                                            ",
"                                                            ",
"                                                            ",
"                                                            ",
"                                                            ",
"                                                            "
};
