/* XPM */
static char *efa9518b608b478fd6db84390539149cnU4JGsfCFfBeg9ru[] = {
/* columns rows colors chars-per-pixel */
"60 60 2 1 ",
"  c black",
". c #002E00",
/* pixels */
"                                                            ",
"                                                            ",
"                                                            ",
"                                                            ",
"                                                            ",
"                                                            ",
"                                                            ",
"                                                            ",
"                                                            ",
"                                                            ",
"                                                            ",
"                                                            ",
"                        ............                        ",
"                        ............                        ",
"                        ............                        ",
"                        ............                        ",
"                    ....            ....                    ",
"                    ....            ....                    ",
"                    ....            ....                    ",
"                    ....            ....                    ",
"                    ....            ....                    ",
"                    ....            ....                    ",
"                    ....            ....                    ",
"                    ....            ....                    ",
"                    ....        ........                    ",
"                    ....        ........                    ",
"                    ....        ........                    ",
"                    ....        ........                    ",
"                    ....    ....    ....                    ",
"                    ....    ....    ....                    ",
"                    ....    ....    ....                    ",
"                    ....    ....    ....                    ",
"                    ........        ....                    ",
"                    ........        ....                    ",
"                    ........        ....                    ",
"                    ........        ....                    ",
"                    ....            ....                    ",
"                    ....            ....                    ",
"                    ....            ....                    ",
"                    ....            ....                    ",
"                    ....            ....                    ",
"                    ....            ....                    ",
"                    ....            ....                    ",
"                    ....            ....                    ",
"                        ............                        ",
"                        ............                        ",
"                        ............                        ",
"                        ............                        ",
"                                                            ",
"                                                            ",
"                                                            ",
"                                                            ",
"                                                            ",
"                                                            ",
"                                                            ",
"                                                            ",
"                                                            ",
"                                                            ",
"                                                            ",
"                                                            "
};
