/* XPM */
static char *_09a57bfebf14a20da75e79280cc1efe0wuXz2zDggPC1fGY[] = {
/* columns rows colors chars-per-pixel */
"60 60 39 1 ",
"  c gray85",
". c #DADADA",
"X c gray86",
"o c gainsboro",
"O c #DDDDDD",
"+ c gray87",
"@ c #DFDFDF",
"# c gray88",
"$ c #E1E1E1",
"% c #E2E2E2",
"& c gray89",
"* c #E4E4E4",
"= c gray90",
"- c #E6E6E6",
"; c #E7E7E7",
": c gray91",
"> c #E9E9E9",
", c #EAEAEA",
"< c gray92",
"1 c #ECECEC",
"2 c gray93",
"3 c #EEEEEE",
"4 c #EFEFEF",
"5 c gray94",
"6 c #F1F1F1",
"7 c gray95",
"8 c #F3F3F3",
"9 c #F4F4F4",
"0 c gray96",
"q c #F6F6F6",
"w c gray97",
"e c #F8F8F8",
"r c #F9F9F9",
"t c gray98",
"y c #FBFBFB",
"u c gray99",
"i c #FDFDFD",
"p c #FEFEFE",
"a c white",
/* pixels */
"aaaaaaaaaaaaaaaaaaaaaaaaaaaaaaaaaaaaaaaaaaaaaaaaaaaaaaaaaaaa",
"aaaaaaaaaaaaaaaaaaaaaaaaaaaaaaaaaaaaaaaaaaaaaaaaaaaaaaaaaaaa",
"aaaaaaaaaaaaaaaaaaaaaaaaaaaaaaaaaaaaaaaaaaaaaaaaaaaaaaaaaaaa",
"aaaaaaaaaaaaaaaaaaaaaaaaaaaaaaaaaaaaaaaaaaaaaaaaaaaaaaaaaaaa",
"aaaaaaaaaaaaaaaaaaaaaaaaaaaaaaaaaaaaaaaaaaaaaaaaaaaaaaaaaaaa",
"aaaaaaaaaaaaaaaaaaaaaaaaaaaaaaaaaaaaaaaaaaaaaaaaaaaaaaaaaaaa",
"aaaaaaaaaaaaaaaaaaaaaaaaaaaaaaaaaaaaaaaaaaaaaaaaaaaaaaaaaaaa",
"aaaaaaaaaaaaaaaaaaaaaaaaaaaaaaaaaaaaaaaaaaaaaaaaaaaaaaaaaaaa",
"aaaaaaaaaaaaaaaataaaaaataaaaaaaaaaaaataaaaaaaaaaaaaaaaaaaaaa",
"aaaaaaaaaaaaaaaaaaaaaaaaaaaaaaaaaaaaaaataaaaaaaaaaaaaaaaaaaa",
"aaaaaaaaaaaaaaaaaataaaaaataaaaaataaaaaaaaaaaaaaaaaaaaaaaaaaa",
"aaaaaaaaaaaaaaaaaaaaaaaaaaaaaattaaaaaaaaaaaaaaaaaaaaaaaaaaaa",
"aaaaaaaaaaaaaaaaaaaaaaaaaaaaaaaaataaaaaaaaaaaaaaaaaaaaaaaaaa",
"aaaaaaaaaaaaaaaaaaaataaaaq1;%@@%;;1aaaaaaaaaaaaaaaaaaaaaaaaa",
"aaaaaaaaaaaaaaaaaaaaaaat>;@@@@@%X@%;7taaaaaaaaaaaaaaaaaaaaaa",
"aaaaaaaaaaaaaaaataataat1%@X@@@@@@%@X%7taaaaaaaaaaaaaaaaaaaaa",
"aaaaaaaaaaaaaaaaaaaaaa;@@@@@@%%@@X%@@%1aaaaaaaaaaaaaaaaaaaaa",
"aaaaaaaaaaaaaaaaaaaaa7%@%%@@X@@@X%@X%@%taaaaaaaaaaaaaaaaaaaa",
"aaaaaaaaaaaaaaaaataat%@XX@@X@;;;%@@X%@X1taaaaaaaaaaaaaaaaaaa",
"aaaaaaaaaaaaaaaaaaaa7@@@%%@;qaaa7@X%X@@@taaaaaaaaaaaaaaaaaaa",
"aaaaaaaaaaaaaaaatata>@@@@@%1aaaaa;@%@@%@7aataaaaaaaaaaaaaaaa",
"aaaaaaaaaaaaaaaaaaat@@@@@@1aaaaaaq@X%@@@;aaaaaaaaaaaaaaaaaaa",
"aaaaaaaaaaaaaaaaaaaq@@@@X@7aatataa%X%@@@@taaaaaaaaaaaaaaaaaa",
"aaaaaaaaaaaaaaaaata1@@@@%@7ataaaaa>%@X%@Xaaaataaaaaaaaaaaaaa",
"aaaaaaaaaaaaaaaaaaa%%@@@X%aaaaaaatt@@@@@%1aaaaataaaaaaaaaaaa",
"aaaaaaaaaaaaaaaaaaa;@@@%@%taaaaaatt@@@@@%>aaaaaaaaaaaaaaaaaa",
"aaaaaaaaaaaaaaaaaaa%@@@@@%aaaaaaaat@@@@@@>aaaaaaaaaaaaaaaaaa",
"aaaaaaaaaaaaaaaaaaa%@@@@@;aaaaaaaat@@@@@@1ataaaaaaaaaaaaaaaa",
"aaaaaaaaaaaaaaaaaaa@@@@@@;aaaaaaaat@@@@@@>aaaaaaaaaaaaaaaaaa",
"aaaaaaaaaaaaaaaaaaa@@@@@@;aaaaaaaaa@@@@@@>aaaaaaaaaaaaaaaaaa",
"aaaaaaaaaaaaaaaaaaa@@@@@@;aaaaaaaaa@@@@@@>aaaaaaaaaaaaaaaaaa",
"aaaaaaaaaaaaaaaaaaa@@@@@@;aaaaataaa@@@@@@>taataaaaaaaaaaaaaa",
"aaaaaaaaaaaaaaaaaaa%@@X@@%aaaaaaata@X%X%@;ataaaaaaaaaaaaaaaa",
"aaaaaaaaaaaaaaaaaaa;@%@@@@aaaaataat@@@@@@>aaaaaaaaaaaaaaaaaa",
"aaaaaaaaaaaaaaaaaaa>@@@@@@taataaaaq%@@@%@1aaaaaaaaaaaaaaaaaa",
"aaaaaaaaaaaaaaaaaaa>@@@@%@taaaaaaa1@@@@@@7aaaaaaaaaaaaaaaaaa",
"aaaaaaaaaaaaaaaaaaa1@@@@@@qaataaaa>@@@%@@qataaaaaaaaaaaaaaaa",
"aaaaaaaaaaaaaaaaaaaq%@@@@@7aaaaaat;@X@@@;aaataaaaaaaaaaaaaaa",
"aaaaaaaaaaaaaaaaaaaa;@@@@%;qaaaaa1%%@@@@>aaaaaaaaaaaaaaaaaaa",
"aaaaaaaaaaaaaaaaaaaa>@@@@@@1aataa;X%X@@@1aaaaataaaaaaaaaaaaa",
"aaaaaaaaaaaaaaaaaaaaq%X@@@@%7ttq>%X@@@@%aaaaaaaaaaaaaaaaaaaa",
"aaaaaaaaaaaaaaaaaataa>%@@@@@X@%@%X@%@X%7aaaaaaaaaaaaaaaaaaaa",
"aaaaaaaaaaaaaaaaaataaq;@%@@@@%@X@@@%@X>taaaaaaaaaaaaaaaaaaaa",
"aaaaaaaaaaaaaaaaaaaaat1%@@@%@@@%@%@X@>qaaaaaaaaaaaaaaaaaaaaa",
"aaaaaaaaaaaaaaaataaaaaa7%%@@@XX@XX@@;qaaaaaaaaaaaaaaaaaaaaaa",
"aaaaaaaaaaaaaaaaaaaaaaaat1%@%;@@%%;7taaaaaaaaaaaaaaaaaaaaaaa",
"aaaaaaaaaaaaaaaaaaaaataaaatq>>>>77qaaaaaaaaaaaaaaaaaaaaaaaaa",
"aaaaaaaaaaaaaaaaaaaaaaaataaaaaaaaaaaaaaaaaaaaaaaaaaaaaaaaaaa",
"aaaaaaaaaaaaaaaaaaaaaaaaaaaaaaaaaaaaaaaaaaaaaaaaaaaaaaaaaaaa",
"aaaaaaaaaaaaaaaaaaaaaaaaaaaaaaaaaaaaaaaaaaaaaaaaaaaaaaaaaaaa",
"aaaaaaaaaaaaaaaaaaaaaaaaaaaaaaaaaaaaaaaaaaaaaaaaaaaaaaaaaaaa",
"aaaaaaaaaaaaaaaaaaaaaaaaaaaaaaaaaaaaaaaaaaaaaaaaaaaaaaaaaaaa",
"aaaaaaaaaaaaaaaaaaaaaaaaaaaaaaaaaaaaaaaaaaaaaaaaaaaaaaaaaaaa",
"aaaaaaaaaaaaaaaaaaaaaaaaaaaaaaaaaaaaaaaaaaaaaaaaaaaaaaaaaaaa",
"aaaaaaaaaaaaaaaaaaaaaaaaaaaaaaaaaaaaaaaaaaaaaaaaaaaaaaaaaaaa",
"aaaaaaaaaaaaaaaaaaaaaaaaaaaaaaaaaaaaaaaaaaaaaaaaaaaaaaaaaaaa",
"aaaaaaaaaaaaaaaaaaaaaaaaaaaaaaaaaaaaaaaaaaaaaaaaaaaaaaaaaaaa",
"aaaaaaaaaaaaaaaaaaaaaaaaaaaaaaaaaaaaaaaaaaaaaaaaaaaaaaaaaaaa",
"aaaaaaaaaaaaaaaaaaaaaaaaaaaaaaaaaaaaaaaaaaaaaaaaaaaaaaaaaaaa",
"aaaaaaaaaaaaaaaaaaaaaaaaaaaaaaaaaaaaaaaaaaaaaaaaaaaaaaaaaaaa"
};
