/* XPM */
static char *_0222124d5a448f59b19dd8d1909fa67wqYChp4gMbEsHwIB[] = {
/* columns rows colors chars-per-pixel */
"60 60 198 2 ",
"   c black",
".  c #010101",
"X  c #020202",
"o  c gray1",
"O  c #040404",
"+  c gray2",
"@  c #060606",
"#  c #070707",
"$  c gray3",
"%  c #090909",
"&  c #0B0B0B",
"*  c #0C0C0C",
"=  c #0E0E0E",
"-  c gray6",
";  c #101010",
":  c #111111",
">  c gray7",
",  c #131313",
"<  c gray8",
"1  c #151515",
"2  c #161616",
"3  c gray9",
"4  c #191919",
"5  c gray10",
"6  c #1B1B1B",
"7  c gray11",
"8  c #1E1E1E",
"9  c gray12",
"0  c #202020",
"q  c gray13",
"w  c #222222",
"e  c gray14",
"r  c #252525",
"t  c #272727",
"y  c gray16",
"u  c gray17",
"i  c #2C2C2C",
"p  c #2D2D2D",
"a  c #2F2F2F",
"s  c gray19",
"d  c #313131",
"f  c #323232",
"g  c gray20",
"h  c #343434",
"j  c #353535",
"k  c gray21",
"l  c #373737",
"z  c #393939",
"x  c #3A3A3A",
"c  c gray23",
"v  c #3C3C3C",
"b  c #3E3E3E",
"n  c #3F3F3F",
"m  c gray25",
"M  c #414141",
"N  c gray26",
"B  c #434343",
"V  c #444444",
"C  c gray27",
"Z  c #464646",
"A  c gray28",
"S  c #484848",
"D  c #494949",
"F  c #4B4B4B",
"G  c #4C4C4C",
"H  c gray30",
"J  c #4E4E4E",
"K  c gray31",
"L  c #505050",
"P  c #515151",
"I  c #535353",
"U  c gray33",
"Y  c #555555",
"T  c #565656",
"R  c gray34",
"E  c #585858",
"W  c gray35",
"Q  c #5B5B5B",
"!  c #5D5D5D",
"~  c gray37",
"^  c gray38",
"/  c #646464",
"(  c gray40",
")  c #686868",
"_  c DimGray",
"`  c #6A6A6A",
"'  c gray42",
"]  c #6C6C6C",
"[  c #6D6D6D",
"{  c gray43",
"}  c gray44",
"|  c #717171",
" . c #727272",
".. c gray45",
"X. c gray46",
"o. c gray48",
"O. c gray49",
"+. c #7E7E7E",
"@. c gray50",
"#. c #818181",
"$. c gray51",
"%. c #848484",
"&. c gray53",
"*. c #888888",
"=. c #898989",
"-. c #8B8B8B",
";. c gray55",
":. c gray56",
">. c #909090",
",. c #929292",
"<. c #939393",
"1. c gray58",
"2. c gray59",
"3. c #979797",
"4. c #9A9A9A",
"5. c #9B9B9B",
"6. c gray61",
"7. c #9F9F9F",
"8. c #A2A2A2",
"9. c gray65",
"0. c #A7A7A7",
"q. c gray66",
"w. c #A9A9A9",
"e. c gray67",
"r. c #ACACAC",
"t. c #AEAEAE",
"y. c gray69",
"u. c #B1B1B1",
"i. c #B2B2B2",
"p. c gray70",
"a. c #B4B4B4",
"s. c gray71",
"d. c #B6B6B6",
"f. c #B7B7B7",
"g. c gray72",
"h. c #B9B9B9",
"j. c #BBBBBB",
"k. c #BCBCBC",
"l. c gray74",
"z. c gray",
"x. c gray75",
"c. c #C0C0C0",
"v. c #C1C1C1",
"b. c gray76",
"n. c #C3C3C3",
"m. c gray77",
"M. c #C5C5C5",
"N. c #C6C6C6",
"B. c gray78",
"V. c #C8C8C8",
"C. c #CACACA",
"Z. c #CBCBCB",
"A. c gray80",
"S. c #CDCDCD",
"D. c gray81",
"F. c #D0D0D0",
"G. c gray82",
"H. c #D2D2D2",
"J. c LightGray",
"K. c gray83",
"L. c #D5D5D5",
"P. c gray84",
"I. c #D7D7D7",
"U. c gray85",
"Y. c gray86",
"T. c gainsboro",
"R. c #DFDFDF",
"E. c gray88",
"W. c #E1E1E1",
"Q. c #E2E2E2",
"!. c gray89",
"~. c #E4E4E4",
"^. c gray90",
"/. c #E6E6E6",
"(. c #E7E7E7",
"). c gray91",
"_. c #EAEAEA",
"`. c gray92",
"'. c #ECECEC",
"]. c gray93",
"[. c #EEEEEE",
"{. c #EFEFEF",
"}. c gray94",
"|. c #F1F1F1",
" X c gray95",
".X c #F3F3F3",
"XX c #F4F4F4",
"oX c gray96",
"OX c #F6F6F6",
"+X c gray97",
"@X c #F8F8F8",
"#X c #F9F9F9",
"$X c gray98",
"%X c #FBFBFB",
"&X c gray99",
"*X c #FDFDFD",
"=X c #FEFEFE",
"-X c white",
/* pixels */
"-X-X%X-X-X-X-X%X%X-X-X-X-X%X-X-X-X-X-X-X-X-X-X-X-X-X-X-X-X-X-X-X-X-X-X-X-X-X-X-X-X-X%X-X-X-X-X-X-X-X-X%X-X-X-X-X-X-X-X-X",
"%X-X-X-X%X%X%X-X-X-X-X^.Q.^._._.^.^._.^._._.^.^._.^.^._.^._._.^._._.^.^._.^.^._.^._.^._.^.Q.].Q.%X-X-X-X-X-X%X-X-X-X-X-X",
"-X%X-XoX%X-X-X-X-X%XB.@                                                                     @   J -X-X-X%X-X-X%X-X-X-X-X",
"-X-X-X-X-X%X%X-X-Xx.        $                                                     @     @         J oX-X-XoX-X-X-X-X-X-X",
"-X-X-X-X%X-X-X-XB.$                                                                 $       @       S %X-X-X-X-X-X-X-X-X",
"%X%X-X%X-X-X%XB.=         4 2 8 4 4 4 4 4 4 4 4 4 4 4 4 4 4 4 4 4 4 4 4 4 4 4 4 8 4 4 2 w 4 ,   @     C .X-X-X%X-X-X-X-X",
"-X%X-X-X%X-XS.2 @     @ +.-X-X%X-X-X-X-X-X-X-X-X-X-X-X-X-X-X-X-X-X-X-X-X-X-X-X-X%X-X%X-X-X-X].v         N .X-X-X-X-X-X-X",
"%X-X-X%X-XG.4         o.-X-X-X-X-X-X-X-X-X-X-X-X-X-X-X-X-X-X-X-X-X-X-X-X-X-X-X-X-X-X-X%X-X-X-XoXN @       v _.%X-X-X-X-X",
"%X-X-X-XL.4         X.-X-X-X-X%X-X-X-X-X-X-X-X-X-X-X-X-X-X-X-X-X-X%X-X-X-X-XoX-X-X-X-X-X-X-X-X-X%XN         f ].-X-X-X-X",
"-X%X-XL.w     $   ` -X-X%X%X-X-X-X-X-X-X-X-X-X-X-X-X-X%X-X%X%X-X-X-XoX-X-X-X-X-X-X-X-X-X-X-X-X-X-X-XS       $ f ^.-X-X%X",
"%X-XR.r         ` -X-X%X-X-X%X-X-X-X-X-X-X-X-X-X-X-X-X%X-X-X-X-X-XoX-X-X-XoX-X-X-X-X-X-X-X-X-X-X%X%X-XJ   @     a Q.%X-X",
"-X-Xr     @   ` %X-X-X-X-X%X-X-X-X-X-X-X-X-X-X-X-X%X-X-X-X%X-X-X-X-X%X-X-X-X-X-X-X-X-X-X-X-X-X-X-X-X-X-XP         u -X-X",
"-X-Xu       ( -X-X%X-X-X-X%X%X-X-X-X-X-X-X-X-X-X-X-X-X%X-X-X-X%X-X-X-X%X-X%X%X-X-X-X-X-X-X-X-X-X-X-X-X%X-XW   @     -X-X",
"-X%Xa @     L.-X-X-X-X%X%X-X-X-X-X-X-X-X-X-X-X-X-X-X-X%X-X-X%X-X-X-X-X%X-X-X-X-X-X-X-X-X-X-X-X-X-X%X-X-X-X.X    @ @ -X-X",
"-X-Xu       G.-X-X-X%X-X-X-X%X-X-X-X-X-X-X-X-X-X-X%X-X-X-X-X-X-X%X-X%X-X-X%X-X-X-X-X-X-X-X-X-X-X-X-XoX-X-X-X      @ -X%X",
"-X%Xf     @ S.-X-X%X-X-X-X-X-X-X-X-X-X-X-X-X-X-X-X%X-XL.C       @   -X-X-X-X-X%X-X-X-X-X-X-X-X-X%X-X-X-X-X%X        -X-X",
"-X-Xf       S.-X-X-X-X-X-X-X-X-X-X%X-X-X-X-X-X-X-X%Xi.w             -X-X-X-X-X-X-X-X-X-X-X-X-X-X-X-X-X%X-X-X        -X%X",
"-X-Xf       S.-X-X-X-X-X-X-X-X-X-X-X%X-X-X-X%X%X-X*.@               -X-X-X-X-X-X-X-X-X-X-X-X-X-X-X-X-X-X-X-X        -X-X",
"-X-Xf       C.-X-X-X-X-X-X-X-X-X-XoX-X-X-X-X-X-X~             $     -X-X-X-X-X-X-X-X-X-X-X-X-X-X-X-X-X%X-X-X@       %X-X",
"-X-Xk       C.-X-X-X-X-X-X-X-X-X-X-X.X-XoX-XR.x   @       @         -X-X-X-X-X-X-X-X-X-X-X-X-X-X-X-X-X-X-X-X@       %X-X",
"-X-Xk       C.-X-X-X-X-X-X-X-X-X%X-X-X-X-Xi.,                 @     -X-X-X%X-X-X-X-X-X-X-X-X-X-X-X-X-X-X-X-X@       oX-X",
"-X-Xx       B.-X-X-X-X-X-X-X-X-X-X%X-X-X*.        @   a   @         -X-X-X-X-X-X-X-X-X-X-X-X-X-X-X-X-X-X-X-X$       .X-X",
"-X-Xx       c.-X-X-X-X-X-X-X-X-X-X%X-X~       @     a j.  @         -X-X-X-X-X-X-X-X-X-X-X-X-X-X%X-X-X-X-X%X=       .X-X",
"-X-Xv       B.-X-X-X-X-X-X-X-X-X-X-X%X<.@   @     P R.c.@           -X-X-X-X-X-X-X-X-X-X-X-X-X-X-X-X-X-X-X-X,       ].-X",
"-X-Xx       B.-X-X-X-X-X-X-X-X-X%X-X-X-Xo.       .-X-Xx.            -X-X-X-X-X-X-X-X-X-X-X-X-X-X-X-X-X%X-X-X=       .X-X",
"-X-Xv       c.-X-X-X-X-X-X-X-X-X-X%X%X-X-X(   *.%X-X%Xi.            -X-X-X-X-X-X-X-X-X-X-X-X-X-X-X-X-X-X-X-X=       ].-X",
"-X-Xx       c.-X-X-X-X-X-X-X-X-XoX-X-X-X-X-X8.-X-X-X-X4.            -X-X-X-X-X-X-X-X-X-X-X-X-X-X-X%X-X%X-X-X,       ].-X",
"-X-Xv       c.-X-X-X-X-X-X-X-X-X-X-X%X%X-X%X-X-XoX-X-X$.            -X-X-X-X-X-X-X-X-X-X-X-X-X-X-X-X-X-X-X-X2       ].-X",
"-X-XN       c.-X-X-X-X-X-X-X-X-X-X-X-X-X-X-X-X-X-X-XoX$.    @       -X-X-X%X-X-X-X-X-X-X-X-X-X-X-X-X-X-X-X-X2       _.-X",
"-X-XN       x.-X-X-X-X-X-X-X-X-X-X-X%X-X-XoX-X%X%X-X-X$.  @         -X-X-X-X-X-X-X-X-X-X-X-X-X-X-X-X-X-X-X-X4       ^.-X",
"-X-XC       j.-X-X-X-X-X-X-X-X-X-X-X-X-X-X-X-X-X-X-X%X+.@     @     -X-X-X-X-X-X-X-X-X-X-X-X-X-X-X-X-X-X-X-X4       Q.-X",
"-X-XC       j.-X-X-X-X-X-X-X-X-X-X%X-X-X%X-X%X-X-X-X-X+.    @       -X-X-X-X-X-X-X-X-X-X-X-X-X-X-X-X-X-X-X-X8       Q.-X",
"-X-XC   @   j.-X-X-X-X-X-X-X-X-X-X-X-X-X-X-X-X-X-X-X-X+.            -X-X-X-X-X-X-X-X-X-X-X-X-X-X-X%X-X%X-X-X8       Q.-X",
"-X-XC       j.-X-X-X-X-X-X-X-X-X-X-X-X-X-X-X-X-X-X-X-X+.            -X-X-X-X-X-X-X-X-X-X-X-X-X-X-X-X-X-X-X-Xw       Q.-X",
"-X-XS       j.-X-X-X-X-X-X-X-X-X-X-X-X-X-X-X-X-X-X-X-X+.            -X-X-X%X-X-X-X-X-X-X-X-X-X-X-X-X-X-X-X-Xw       R.-X",
"-X-XS       s.-X-X-X-X-X-X-X-X-X-X-X-X-X-X-X-X-X-X-X-X+.  @         -X-X-X-X-X-X-X-X-X-X-X-X-X-X-X-X-X-X-X-Xw       Y.-X",
"-X-XJ       s.-X-X-X-X-X-X-X-X-X-X-X-X-X-X-X-X-X-X-X-X+.            -X-X-X-X-X-X-X-X-X-X-X-X-X-X-X-X-X-X-X-Xr       Y.-X",
"-X-XJ       i.-X-X-X-X-X-X-X-X-X-X-X-X-X-X-X-X-X-X-X-X+.            -X-X-X-X-X-X-X-X-X-X-X-X-X-X-X-X-X-X-X-Xu       L.-X",
"-X-XJ       i.-X-X-X-X-X-X-X-X-X-X-X-X-X-X-X-X-X-X-X-X+.            -X-X-X-X-X-X-X-X-X-X-X-X-X-X-X-X-X-X-X-Xu       L.-X",
"-X-XJ       i.-X-X-X-X-X-X-X-X-X-X-X-X-X-X-X-X-X-X-X-X+.            -X-X-X-X-X-X-X-X-X-X-X-X-X-X-X-X%X-X-X%Xa       L.-X",
"-X-XP       t.-X-X-X-X-X-X-X-X-X-X-X-X-X-X-X-X-X-X%X-X+.            -X-X-X-X%X-X-X-X-X-X-X-X-X-X-X-X-X%X-X-Xu       G.-X",
"-X-XP       t.-X-X-X-X-X-X-X-X-X-X-X-X-X-X-X-X-X-X-X-X+.    @       -X-X-X%X-X-X-X-X-X-X-X-X-X-X-X-X-X-X-X-Xa       G.-X",
"-X-XP       e.-X-X-X-X-X-X-X-X-X-X-X-X-X-X-X-X-X-X-X-X+.    @       %X-X-X%X-X-X-X-X-X-X-X-X-X-X-X-X-X%X-X-Xa       S.-X",
"-X-XY       e.-X-X-X-X-X-X-X-X-X-X-X-X-X-X-X-X-X-X%X-X+.@       @   -X-X%X-X%X-X-X-X-X-X-X-X-X-X-X-X-X-X-X-Xf       S.-X",
"-X-XY       e.-X-X-X-X-X-X-X-X-X-X-X-X-X-X-X-X-X%X-X-Xo.            -X-X-X-X-X%X-X-X-X-X-X-X-X-X-X-X-X-X-X-Xk       S.-X",
"-X-XY       e.-X-X-X-X-X-X-X-X-X-X-X-X-X-X-X-X-X-XoX-X-X%X-X-X-X-X-XoX-X%X-X-X-X-X-X-X-X-X-X-X-X-X-X-X-X-X-Xk       C.-X",
"-X-XW       9.-X-X-X-X-X-X-X-X-X-X-X-X-X-X-X-X-X%X-X-X-X%X-X-X%X-XoX-X-X-X%X-X%X-X-X-X-X-X-X-X-X-X-X-X-X-X-Xx       B.-X",
"-X-XW       9.-X-X-X-X-X-X-X-X-X-X-X-X-X-X-X-X-X-X-X-X-X-X%X%X-X-X-X-X-X-X-X%X-X-X-X-X-X-X-X-X-X%X-X-X-X-X-Xx       c.-X",
"-X-XW       w ^.-X-X-X-X-X-X%X-X-X-X-X-X-X-X-X-X-X-X-X-X-X-X-X-X-X-X-X-X-X-X-X-X-X-X-X-X-X-X-X-X-X-X-X-X-X^         B.-X",
"-XoX;.        x %X-X-XoX-X-X-X-X-X-X-X-X-X-X-X-X-X-X-X-X-X-X-X-X-X-X-X-X-X-X-X-X-X-X-X-X-X-X-X-X-X-X-X-X]         N -X-X",
"-X-X-XX.    @   P -X-X-X-X%X%X-X-X-X-X-X-X-X-X-X-X-X-X-X-X-X-X-X-X-X-X-X-X-X-X-X-X-X-X-X-X-X-X-X-X%X-X$.@ @     k ].-X-X",
"-X-X-XoXW          .%X-X%X-X-X%X-X-X-X-X-X-X-X-X-X-X-X-X-X-X-X-X-X-X-X-X-X-X-X-X-X-X-X-X-X-X-X-X-X-X4.        r Y.%X-X-X",
"-X%X-X-X-XC         *.-X-X-X-X-X-X-X-X-X-X-X-X-X-X-X-X-X-X-X-X-X-X-X-X-X-X-X-X-X-X-X-X-X-X-X-X-X-X9.  @ @   , B.-X-X-X%X",
"-X-X-X-X-X^.u     @   6.%X-X-X-X-X-X-X-X-X-X-X-X-X-X-X-X-X-X-X-X-X-X-X-X-X-X-X-X-X-X-X-X-X-X-X-Xx.$     @   i.-X-X%X%X-X",
"-X-XoX-X-X-XS.,         ] ` `  .] ] ] ] ] ] ` ] ] ] ] ] ] ] ] ] ] ] ] ] ] ] ` ] ] ] ] ] ] ] ] ] ,         8.%X-X%X-X-X-X",
"%X-X%X-X-X-X-Xs.          @                     @                   @           @                   @   ;.-X-X-X-X-X-X-X",
"-X-X-X-X-X-X-X-X6.                                                                                    +.-X-X%X-X-X-X-X-X",
"-X-X-X-X-X-X-X-X-X*.  @     @                                                                     @ ` -X-X-X-X-X-X-X-X-X",
"-X-X-X-X-X-X-X-X-X-X<.3.<.<.3.;.<.<.3.<.<.<.<.<.<.<.<.<.<.<.<.<.<.<.3.<.<.<.<.<.<.<.<.<.<.<.<.<.;.<.-X-X%X-X-X-X-X-X-X-X",
"-X-X-X-X-X-X-X-X%X-X%X-X-X-X-X-X-X-X-X-X-X-X-X-X-X-X-X-X-X-X-X-X-X-X-X-X-X-X-X-X-X-X-X-X-X-X-X-X-X%X-X-X-X%X-X-X-X-X-X-X"
};
